<?xml version="1.0" encoding="utf-8" ?>
<svg baseProfile="full" height="200mm" version="1.1" viewBox="0,0,200,200" width="200mm" xmlns="http://www.w3.org/2000/svg" xmlns:ev="http://www.w3.org/2001/xml-events" xmlns:xlink="http://www.w3.org/1999/xlink"><defs /><rect fill="#1a1a1a" height="200" width="200" x="0" y="0" /><text alignment-baseline="middle" fill="#e1ed5e" style="dominant-baseline: central; font-size:9.0px; font-family:Arial;" text-anchor="middle" x="100.0" y="100.0">2025</text><line stroke="#e1ed5e" stroke-width="0.3" x1="100.0" x2="100.0" y1="15.0" y2="10.0" /><path d="M 100.0 14.0 a86.0,86.0 0 0,1 42.46469731375804,11.215312516191453" fill="none" id="id25" stroke="none" /><text fill="#e1ed5e" style="font-size:6.75px; font-family:Arial;" text-anchor="middle"><textPath startOffset="22.20632615414155" xlink:href="#id25">January</textPath></text><path d="M 101.44485096284872 79.0497635885617 l 1.9504505636259593 -28.281394737226897 a49.348572198331155,49.348572198331155 0 0,0 0.846938550535208,0.06573873183914014 l -2.436979303523508 28.243630743199294" fill="#fffc17" stroke="none" /><path d="M 102.16513564639614 79.11191278185805 l 2.2635176178805874 -21.837224610286693 a42.954222616311576,42.954222616311576 0 0,0 0.7347898566016534,0.08256220191995099 l -2.639074177991966 21.795026454896142" fill="#ff970d" stroke="none" /><path d="M 102.88285421437855 79.19881850522331 l 2.9065371664356476 -20.97206539921226 a42.172517219468915,42.172517219468915 0 0,0 0.7182000157661305,0.10584401306107279 l -3.2671061626304336 20.918926901990215" fill="#ff8a0c" stroke="none" /><path d="M 104.307194497241 79.44645832069477 l 4.813245387437797 -22.96837065212542 a44.46728321670635,44.46728321670635 0 0,0 0.7478068859574076,0.16344162098465564 l -5.207894997548733 22.882115533044892" fill="#ffaf10" stroke="none" /><path d="M 106.0581310904928 79.89281104454417 l 11.513690556667688 -38.21441763795391 a60.91123633317642,60.91123633317642 0 0,0 1.0013071308803265,0.31111099967787686 l -12.169783060258734 38.01056650339351" fill="#60ff29" stroke="none" /><path d="M 107.08798089147638 80.2323363322302 l 7.812938207664858 -21.789496488613903 a44.14787594281832,44.14787594281832 0 0,0 0.7131304666382692,0.262651969218452 l -8.186851000075704 21.651781251589128" fill="#ffaa0f" stroke="none" /><path d="M 107.76421540070413 80.48803036053334 l 6.824392228904303 -17.15013392932362 a39.45804494218352,39.45804494218352 0 0,0 0.6289163865073889,0.2565507852063923 l -7.11859248500008 17.030122257933648" fill="#ff5c08" stroke="none" /><path d="M 108.76106565485865 80.91482961587045 l 17.701785737547873 -38.56170130594762 a63.43062603718187,63.43062603718187 0 0,0 0.988375376679664,0.4640554920179961 l -18.362939325527137 38.25128083128962" fill="#41ff2d" stroke="none" /><path d="M 109.41281617654863 81.2277094730956 l 10.323682920100635 -20.588862190531994 a44.03214439290218,44.03214439290218 0 0,0 0.6746133651139933,0.34556316773664514 l -10.676556772803384 20.408106497482848" fill="#ffa80f" stroke="none" /><path d="M 110.36928655335952 81.73862282372117 l 11.218785702900767 -19.757432309953842 a43.72041558004648,43.72041558004648 0 0,0 0.651232802448205,0.37723607334684417 l -11.557215237814301 19.56139207921695" fill="#ffa30f" stroke="none" /><line stroke="#e1ed5e" stroke-width="0.3" x1="143.23703022742887" x2="145.7803849466894" y1="26.81831364943548" y2="22.513508569990506" /><path d="M 143.74570117128098 25.957352633546492 a86.0,86.0 0 0,1 28.547481713284135,27.462654790039103" fill="none" id="id26" stroke="none" /><text fill="#e1ed5e" style="font-size:6.75px; font-family:Arial;" text-anchor="middle"><textPath startOffset="19.985693538727396" xlink:href="#id26">February</textPath></text><path d="M 110.99172775467656 82.1063720568725 l 23.822995173533222 -38.78187502822383 a66.5144914257312,66.5144914257312 0 0,0 0.9704174410734929,0.6076753125739541 l -24.48703176697898 38.36605537432693" fill="#32ff48" stroke="none" /><path d="M 112.19680574252982 82.90503203632743 l 14.57088169996661 -20.422458233865996 a46.08759442091694,46.08759442091694 0 0,0 0.6418348974468646,0.46632034895310376 l -14.920261913767265 20.168618650096217" fill="#ffc912" stroke="none" /><path d="M 113.06298171725822 83.55741782278167 l 28.304097130671877 -35.62681576811718 a66.50155949149294,66.50155949149294 0 0,0 0.8901601125342844,0.7197809045163377 l -28.913160641770652 35.134328766336715" fill="#32ff48" stroke="none" /><path d="M 117.04232023915458 87.72973835380427 l 11.529561875244847 -8.301143206441436 a35.207032609554616,35.207032609554616 0 0,0 0.3498696857032008,0.4948658584902341 l -11.67074418075193 8.10145084761941" fill="#ff1101" stroke="none" /><path d="M 117.65298651832404 88.62581576622439 l 17.26186940018275 -11.12217938722431 a41.53472691589939,41.53472691589939 0 0,0 0.3820649065529566,0.6043349290810063 l -17.45076190298166 10.823396810429099" fill="#ff7f0b" stroke="none" /><line stroke="#e1ed5e" stroke-width="0.3" x1="172.23445277983987" x2="176.4835382374775" y1="55.19839476539836" y2="52.563006222186495" /><path d="M 173.08426987136738 54.67131705675599 a86.0,86.0 0 0,1 12.851231095245387,41.99856678651699" fill="none" id="id27" stroke="none" /><text fill="#e1ed5e" style="font-size:6.75px; font-family:Arial;" text-anchor="middle"><textPath startOffset="22.20632615414155" xlink:href="#id27">March</textPath></text><path d="M 118.03404312379186 89.2402003453031 l 24.473827027849335 -14.602020955353915 a49.49889866941675,49.49889866941675 0 0,0 0.43026405126074363,0.7354607357460192 l -24.72155075358041 14.178580807254" fill="#fffe18" stroke="none" /><path d="M 118.3937258080291 89.86733742301442 l 20.638259468204957 -11.369122359990548 a44.56256983254137,44.56256983254137 0 0,0 0.36433487229804407,0.6750571854907953 l -20.830902439721466 11.012184191167295" fill="#ffb110" stroke="none" /><path d="M 118.89224826269711 90.83032412892265 l 19.895824527104974 -9.656778778500861 a43.115542272127456,43.115542272127456 0 0,0 0.3183195974934644,0.6704622539397195 l -20.059102318440193 9.312874108920601" fill="#ff990e" stroke="none" /><path d="M 119.196687751892 91.48605970444005 l 31.63902234549664 -14.032251331112901 a55.611151561286654,55.611151561286654 0 0,0 0.38056376741445724,0.8783936449239459 l -31.875876822753778 13.485558541602353" fill="#a7ff21" stroke="none" /><path d="M 119.47837535516314 92.15188598940014 l 24.02936864233872 -9.681773827087635 a46.90651079918503,46.90651079918503 0 0,0 0.2953020609617112,0.7515115350120208 l -24.19246425318213 9.26671328717983" fill="#ffd614" stroke="none" /><path d="M 119.7369772167798 92.82701384747503 l 21.40605969872979 -7.779578813546574 a43.77589160366212,43.77589160366212 0 0,0 0.25128804131548543,0.7104251316104421 l -21.53680082085509 7.409956055509517" fill="#ffa40f" stroke="none" /><path d="M 120.08093135843002 93.85539295169968 l 42.031065800730694 -12.861175537972457 a64.95475319648484,64.95475319648484 0 0,0 0.3179507420554023,1.071971840430169 l -42.2462224398978 12.135774310795759" fill="#30ff31" stroke="none" /><path d="M 120.28053869075195 94.5502522615342 l 27.28412839866705 -7.331739028433721 a49.2520452296114,49.2520452296114 0 0,0 0.21296506522564165,0.820641270231939 l -27.406289795762994 6.861001332652931" fill="#fffa17" stroke="none" /><path d="M 120.45610955862082 95.25157060432595 l 30.42283764974925 -7.061982933847191 a52.23172511439209,52.23172511439209 0 0,0 0.19575856871758562,0.8775472791629971 l -30.539890605468877 6.53725748513423" fill="#d7ff1c" stroke="none" /><path d="M 120.67395015179393 96.31383870115 l 50.41760626657663 -8.98944941029497 a72.212744725818,72.212744725818 0 0,0 0.20765682040511818,1.2256023088096217 l -50.564874948501966 8.120261313169511" fill="#3bff99" stroke="none" /><path d="M 120.78858239683441 97.02765380044208 l 22.543006961087748 -3.223193375494427 a43.77226686967026,43.77226686967026 0 0,0 0.1002259867334224,0.746800016459687 l -22.595148946879007 2.8346750169700754" fill="#ffa40f" stroke="none" /><path d="M 120.87857604477298 97.74499172005257 l 16.228095147874257 -1.752729153930624 a37.32247320768205,37.32247320768205 0 0,0 0.06348885807744827,0.6393241365443509 l -16.255861131633935 1.473129486681838" fill="#ff3705" stroke="none" /><path d="M 120.96714384426684 98.82574320788733 l 62.90143153280055 -3.5227703763380056 a84.0,84.0 0 0,0 0.0684255670660141,1.444355573508001 l -62.95275070810006 2.4395036962070047" fill="#4dd2ff" stroke="none" /><line stroke="#e1ed5e" stroke-width="0.3" x1="184.98032266829074" x2="189.97916517819016" y1="98.17113171792111" y2="98.06355123074" /><path d="M 185.9800911702706 98.14961562048488 a86.0,86.0 0 0,1 -9.607161424134198,41.387399972396054" fill="none" id="id28" stroke="none" /><text fill="#e1ed5e" style="font-size:6.75px; font-family:Arial;" text-anchor="middle"><textPath startOffset="21.466115282336823" xlink:href="#id28">April</textPath></text><path d="M 120.99824983174949 100.27111621757518 l 13.270033435396398 0.17133433981060334 a34.27113947001299,34.27113947001299 0 0,0 -0.012693274976720374,0.5898066109019077 l -13.26511809773467 -0.39973076650262584" fill="#ff0000" stroke="none" /><path d="M 120.9904718944345 100.63252640178507 l 22.39035192543916 0.67471035474217 a43.40051547192192,43.40051547192192 0 0,0 -0.02892926903644111,0.7465358895132788 l -22.375420523551515 -1.060023491269455" fill="#ff9e0e" stroke="none" /><line stroke="#e1ed5e" stroke-width="0.3" x1="174.80103733775053" x2="179.2010983576182" y1="140.37084112569926" y2="142.7455964860345" /><path d="M 175.68104954172406 140.8457921977663 a86.0,86.0 0 0,1 -30.038265399797805,32.042727171017184" fill="none" id="id29" stroke="none" /><text fill="#e1ed5e" style="font-size:6.75px; font-family:Arial;" text-anchor="middle"><textPath startOffset="22.206326154141568" xlink:href="#id29">May</textPath></text><line stroke="#e1ed5e" stroke-width="0.3" x1="143.8653032363475" x2="146.44561519142675" y1="172.8068346515853" y2="177.08958963109032" /><path d="M 144.38136562736335 173.6633856474863 a86.0,86.0 0 0,1 -40.68145358897372,12.25698825130547" fill="none" id="id30" stroke="none" /><text fill="#e1ed5e" style="font-size:6.75px; font-family:Arial;" text-anchor="middle"><textPath startOffset="21.466115282336833" xlink:href="#id30">June</textPath></text><line stroke="#e1ed5e" stroke-width="0.3" x1="102.19456741930631" x2="102.32365962044197" y1="184.97166512339345" y2="189.96999836594603" /><path d="M 102.22038585953345 185.97133177190398 a86.0,86.0 0 0,1 -42.740103519485714,-10.115201625700543" fill="none" id="id31" stroke="none" /><text fill="#e1ed5e" style="font-size:6.75px; font-family:Arial;" text-anchor="middle"><textPath startOffset="22.20632615414155" xlink:href="#id31">July</textPath></text><line stroke="#e1ed5e" stroke-width="0.3" x1="58.666819895761336" x2="56.23545636021788" y1="174.27360380694188" y2="178.64263932499728" /><path d="M 58.180547188652646 175.14741091055294 a86.0,86.0 0 0,1 -31.652253787137756,-30.449443065178592" fill="none" id="id32" stroke="none" /><text fill="#e1ed5e" style="font-size:6.75px; font-family:Arial;" text-anchor="middle"><textPath startOffset="22.20632615414155" xlink:href="#id32">August</textPath></text><line stroke="#e1ed5e" stroke-width="0.3" x1="26.63291911575756" x2="22.317208475507996" y1="142.92168965132927" y2="145.44649492493687" /><path d="M 25.769776987707644 143.4266507060508 a86.0,86.0 0 0,1 -11.730757126820373,-40.83630448921669" fill="none" id="id33" stroke="none" /><text fill="#e1ed5e" style="font-size:6.75px; font-family:Arial;" text-anchor="middle"><textPath startOffset="21.46611528233685" xlink:href="#id33">September</textPath></text><line stroke="#e1ed5e" stroke-width="0.3" x1="15.007084014347285" x2="10.007500721073583" y1="101.09737516637583" y2="101.16192664675087" /><path d="M 14.007167355692545 101.11028546245083 a86.0,86.0 0 0,1 10.666146001902534,-42.60595125391555" fill="none" id="id34" stroke="none" /><text fill="#e1ed5e" style="font-size:6.75px; font-family:Arial;" text-anchor="middle"><textPath startOffset="22.20632615414155" xlink:href="#id34">October</textPath></text><line stroke="#e1ed5e" stroke-width="0.3" x1="26.266209847984243" x2="21.928928074336255" y1="57.711370442889674" y2="55.22380399835377" /><path d="M 25.398753493254645 57.213857153982495 a86.0,86.0 0 0,1 29.58750427330803,-30.492523968695096" fill="none" id="id35" stroke="none" /><text fill="#e1ed5e" style="font-size:6.75px; font-family:Arial;" text-anchor="middle"><textPath startOffset="21.46611528233685" xlink:href="#id35">November</textPath></text><line stroke="#e1ed5e" stroke-width="0.3" x1="56.762969772571076" x2="54.21961505331055" y1="26.818313649435495" y2="22.513508569990535" /><path d="M 56.25429882871897 25.957352633546506 a86.0,86.0 0 0,1 42.265352541879196,-11.944610805530505" fill="none" id="id36" stroke="none" /><text fill="#e1ed5e" style="font-size:6.75px; font-family:Arial;" text-anchor="middle"><textPath startOffset="22.20632615414155" xlink:href="#id36">December</textPath></text></svg>