<?xml version="1.0" encoding="utf-8" ?>
<svg baseProfile="full" height="200mm" version="1.1" viewBox="0,0,200,200" width="200mm" xmlns="http://www.w3.org/2000/svg" xmlns:ev="http://www.w3.org/2001/xml-events" xmlns:xlink="http://www.w3.org/1999/xlink"><defs /><rect fill="#1a1a1a" height="200" width="200" x="0" y="0" /><rect fill="#1a1a1a" height="200" width="180" x="10" y="0" /><text alignment-baseline="middle" fill="#e1ed5e" style="dominant-baseline: central; font-size:9.0px; font-family:Arial;" text-anchor="middle" x="100.0" y="100.0">2026</text><line stroke="#e1ed5e" stroke-width="0.3" x1="100.0" x2="100.0" y1="15.0" y2="10.0" /><path d="M 100.0 14.0 a86.0,86.0 0 0,1 42.46469731375804,11.215312516191453" fill="none" id="id37" stroke="none" /><text fill="#e1ed5e" style="font-size:6.75px; font-family:Arial;" text-anchor="middle"><textPath startOffset="22.20632615414155" xlink:href="#id37">January</textPath></text><path d="M 100.72285384407766 79.0124445844662 l 0.821469536346364 -23.850793016450925 a44.86493535949195,44.86493535949195 0 0,0 0.771589652825741,0.03322627353262586 l -1.2319000215614364 23.833119016394104" fill="#e5ff1a" stroke="none" /><path d="M 101.08401301168833 79.027996857942 l 2.3505951800996825 -45.47610496480877 a66.53681390337945,66.53681390337945 0 0,0 1.1432860764588317,0.06896613831084279 l -3.133043305398126 45.42890555711762" fill="#36ff72" stroke="none" /><path d="M 101.80526077348638 79.07773832637324 l 2.053207751745469 -23.795869540430026 a44.88428498525742,44.88428498525742 0 0,0 0.7691774454626084,0.07304266662841594 l -2.4625103242983215 23.75700132928643" fill="#e5ff1a" stroke="none" /><path d="M 102.52436894288641 79.15227682838746 l 0.41567064017589717 -3.4328525794036517 a24.45792696756634,24.45792696756634 0 0,0 0.41751459948110914,0.0542053777618866 l -0.4746999681648524 3.4251888784776288" fill="#ff0000" stroke="none" /><path d="M 103.2404852339499 79.25152402106235 l 2.8183365140020755 -18.045503447660188 a39.264260603311406,39.264260603311406 0 0,0 0.6668769047501508,0.11004040330558779 l -3.1285426248911015 17.994316781414977" fill="#ffd213" stroke="none" /><path d="M 103.95276090670814 79.375362276772 l 2.934985488395494 -15.314109264326989 a36.592821501474255,36.592821501474255 0 0,0 0.6176059577379094,0.12388594498703281 l -3.198157855600529 15.261319363262748" fill="#ffae10" stroke="none" /><path d="M 106.40334571778207 80.00007090966166 l 7.789599627426657 -24.329693734640443 a46.546268995237014,46.546268995237014 0 0,0 0.760958747932859,0.25087613510469814 l -8.207241197601935 24.19200387527651" fill="#d0ff1d" stroke="none" /><path d="M 106.74666289553966 80.11325718540242 l 7.0045020195810315 -20.646760089321944 a42.802562939442055,42.802562939442055 0 0,0 0.6956802382593313,0.24270917508912626 l -7.358864261903636 20.52313006106061" fill="#feff18" stroke="none" /><path d="M 107.4271985657038 80.35727306442388 l 7.7087296521844655 -20.387292764359998 a42.79601383533681,42.79601383533681 0 0,0 0.6868084349245558,0.2664710025414948 l -8.058521252108688 20.251579057927955" fill="#ffff18" stroke="none" /><path d="M 108.76106565485865 80.91482961587045 l 8.80279447743793 -19.1760727606473 a42.100022680880016,42.100022680880016 0 0,0 0.6560021298078597,0.30800179597301297 l -9.131574818545387 19.021705982034284" fill="#fff717" stroke="none" /><path d="M 109.73455568895987 81.39251694778311 l 11.630023155272418 -22.230645719562823 a46.08902245407121,46.08902245407121 0 0,0 0.6997958623880238,0.37380671422222184 l -12.010964064188753 22.027160278838846" fill="#d6ff1c" stroke="none" /><line stroke="#e1ed5e" stroke-width="0.3" x1="143.23703022742887" x2="145.7803849466894" y1="26.81831364943548" y2="22.513508569990506" /><path d="M 143.74570117128098 25.957352633546492 a86.0,86.0 0 0,1 28.547481713284135,27.462654790039103" fill="none" id="id38" stroke="none" /><text fill="#e1ed5e" style="font-size:6.75px; font-family:Arial;" text-anchor="middle"><textPath startOffset="19.985693538727396" xlink:href="#id38">February</textPath></text><path d="M 110.99172775467656 82.1063720568725 l 7.952891476616666 -12.94665264012773 a36.19421921070538,36.19421921070538 0 0,0 0.5280578838571441,0.3306697984272203 l -8.174568512846074 12.807838500377565" fill="#ffa90f" stroke="none" /><path d="M 111.2981086023043 82.29822771554956 l 13.940056882861274 -21.841152467092403 a46.91063733272851,46.91063733272851 0 0,0 0.6769271406329382,0.4402922422210952 l -14.313951049278492 21.59796130071178" fill="#ccff1d" stroke="none" /><path d="M 112.77801427241765 83.33499621200491 l 19.713869121946228 -25.710700942198432 a53.398715695168974,53.398715695168974 0 0,0 0.7246140747343013,0.5655727789681233 l -20.15351575183996 25.367549774007085" fill="#81ff25" stroke="none" /><path d="M 113.06298171725822 83.55741782278167 l 9.82130903152559 -12.362237376889674 a36.78869925153096,36.78869925153096 0 0,0 0.49243706337325716,0.3981831918788888 l -10.032649493463339 12.191348087746654" fill="#ffb110" stroke="none" /><path d="M 113.34407831869373 83.78471172551755 l 18.945852180819433 -23.022380967844366 a50.81568949875255,50.81568949875255 0 0,0 0.6706278737526189,0.5616315580426435 l -19.33933759153117 22.692848252407902" fill="#9eff22" stroke="none" /><path d="M 114.16331599549186 84.49514656593476 l 20.123055619133556 -22.029094607471798 a50.83652755726922,50.83652755726922 0 0,0 0.6410053196386145,0.5957445853206721 l -20.499268822567018 21.679445436076485" fill="#9eff22" stroke="none" /><path d="M 114.68862486808459 84.99185889309783 l 16.709185308659166 -17.07265405345155 a44.888750283511,44.888750283511 0 0,0 0.5475662284697367,0.5452148050687132 l -17.000587337296224 16.782503397732718" fill="#e4ff1a" stroke="none" /><path d="M 114.94478906791727 85.2469230424477 l 17.415390821575286 -17.191985773028808 a45.4716205488773,45.4716205488773 0 0,0 0.545087232356403,0.5617603074637111 l -17.708742317634798 16.889661270014983" fill="#ddff1b" stroke="none" /><path d="M 115.4437574822437 85.77008943001954 l 33.15928678623329 -30.55303646634854 a66.08909333182127,66.08909333182127 0 0,0 0.7636637515660374,0.843256588102102 l -33.680294178415366 29.97772709097689" fill="#36ff6d" stroke="none" /><path d="M 116.60985879189232 87.15038557335679 l 20.406552671162896 -15.786788851535782 a46.80019562259015,46.80019562259015 0 0,0 0.48744422785136143,0.6414194662822503 l -20.67527283923837 15.433184609372498" fill="#cdff1d" stroke="none" /><path d="M 117.04232023915458 87.72973835380427 l 19.775121420620284 -14.237844994769198 a45.36743025629394,45.36743025629394 0 0,0 0.45083857935314475,0.6376791980811227 l -20.017272619777312 13.895339296356282" fill="#dfff1b" stroke="none" /><path d="M 117.2510076193507 88.02491185347247 l 17.14047439974383 -11.898359582195614 a41.86544567929235,41.86544567929235 0 0,0 0.405846689246598,0.5955299376182682 l -17.34274555465916 11.601551621306939" fill="#fff417" stroke="none" /><path d="M 117.65298651832404 88.62581576622439 l 43.01238850526777 -27.7137713035593 a72.16755500113405,72.16755500113405 0 0,0 0.6638466701248222,1.0500460090148054 l -43.483062771638544 26.96927764683029" fill="#3effb3" stroke="none" /><line stroke="#e1ed5e" stroke-width="0.3" x1="172.23445277983987" x2="176.4835382374775" y1="55.19839476539836" y2="52.563006222186495" /><path d="M 173.08426987136738 54.67131705675599 a86.0,86.0 0 0,1 12.851231095245387,41.99856678651699" fill="none" id="id39" stroke="none" /><text fill="#e1ed5e" style="font-size:6.75px; font-family:Arial;" text-anchor="middle"><textPath startOffset="22.20632615414155" xlink:href="#id39">March</textPath></text><path d="M 118.03404312379186 89.2402003453031 l 18.969694601353073 -11.318045100605701 a43.089532773871625,43.089532773871625 0 0,0 0.3745513018792394,0.6402295874999767 l -19.161705577702637 10.989836100751829" fill="#fbff18" stroke="none" /><path d="M 118.3937258080291 89.86733742301442 l 19.792080756833535 -10.90298279416031 a43.596492968927194,43.596492968927194 0 0,0 0.3564364164401878,0.6604225463537379 l -19.97682527249219 10.560679264474114" fill="#f5ff19" stroke="none" /><path d="M 118.56541770881063 90.18545643968196 l 22.938070453649154 -12.126131239705156 a46.94606203220685,46.94606203220685 0 0,0 0.3715234600015617,0.7176650711807785 l -23.143403346810832 11.729493446264032" fill="#cbff1d" stroke="none" /><path d="M 119.04729006885535 91.15688171328212 l 57.0635685208101 -26.493001601150066 a83.91367090043093,83.91367090043093 0 0,0 0.5969765717916473,1.3153587436996241 l -57.5111474095651 25.50682084860838" fill="#4dd3ff" stroke="none" /><path d="M 119.47837535516314 92.15188598940014 l 22.135722321851866 -8.918796836042313 a44.86493535949195,44.86493535949195 0 0,0 0.2824492304126384,0.718802483189875 l -22.285965102146204 8.536445347956652" fill="#e5ff1a" stroke="none" /><path d="M 119.61058180528143 92.48833698450437 l 16.878766379440812 -6.465264846221486 a39.07463427080971,39.07463427080971 0 0,0 0.2351835465622614,0.6301749788839971 l -16.9875545145047 6.173766730308156" fill="#ffcf13" stroke="none" /><path d="M 119.97218684219823 93.5106431181261 l 24.299909229216855 -7.895519125244338 a46.55043660694035,46.55043660694035 0 0,0 0.2410526052000245,0.7642026320485815 l -24.432217318185085 7.476066326769337" fill="#d0ff1d" stroke="none" /><path d="M 120.18372546131832 94.20196356495316 l 20.17571422984694 -5.795735105094173 a41.99166477659333,41.99166477659333 0 0,0 0.19358803220555712,0.6964391520146667 l -20.272489032618857 5.447584649660555" fill="#fff517" stroke="none" /><path d="M 120.37134235888165 94.90015583598534 l 23.343125702826583 -5.843812414920108 a45.0634922885008,45.0634922885008 0 0,0 0.18190028817925571,0.7540941287229356 l -23.440258791266658 5.441133054537766" fill="#e2ff1b" stroke="none" /><path d="M 120.6074358757038 95.95851677861258 l 61.822307627111385 -12.124449664162288 a84.0,84.0 0 0,0 0.26605710436056285,1.4212876901497489 l -62.02185045538181 11.058483896549978" fill="#4dd2ff" stroke="none" /><path d="M 120.78858239683441 97.02765380044208 l 20.226609349789122 -2.8919954368770764 a41.43231174869585,41.43231174869585 0 0,0 0.09486815796001505,0.706877968829354 l -20.273393506806975 2.5433991259830577" fill="#ffee16" stroke="none" /><path d="M 120.94382443527127 98.46500227214037 l 16.247614765885906 -1.1908069524672018 a37.291194148332956,37.291194148332956 0 0,0 0.041409933727558246,0.640593346294827 l -16.26570529061788 0.9109545419193397" fill="#ffb811" stroke="none" /><path d="M 120.98425023603335 99.18683210126433 l 23.906827047229587 -0.9264216780092835 a44.92477035608981,44.92477035608981 0 0,0 0.023293077435575474,0.7729838404634144 l -23.919231819120807 0.5147676901208701" fill="#e4ff1a" stroke="none" /><line stroke="#e1ed5e" stroke-width="0.3" x1="184.98032266829074" x2="189.97916517819016" y1="98.17113171792111" y2="98.06355123074" /><path d="M 185.9800911702706 98.14961562048488 a86.0,86.0 0 0,1 -9.607161424134198,41.387399972396054" fill="none" id="id40" stroke="none" /><text fill="#e1ed5e" style="font-size:6.75px; font-family:Arial;" text-anchor="middle"><textPath startOffset="21.466115282336823" xlink:href="#id40">April</textPath></text><path d="M 120.9764740272857 100.99374915477107 l 12.246188284471174 0.5801565716445269 a33.25992288500794,33.25992288500794 0 0,0 -0.03201449574787546,0.5716403277000995 l -12.23438743783577 -0.7908686156800498" fill="#ff810b" stroke="none" /><path d="M 120.89721153311464 102.0752229133903 l 13.186654731750378 1.3095167270011514 a34.251516783851216,34.251516783851216 0 0,0 -0.0633126215070094,0.5861962434829012 l -13.162159808742318 -1.536309292368844" fill="#ff8e0d" stroke="none" /><path d="M 120.8583938346157 102.4346265915055 l 14.988865936977964 1.7495254848490123 a36.0906242912225,36.0906242912225 0 0,0 -0.07733445825924067,0.616431722378361 l -14.956529969471875 -2.0072749615147685" fill="#ffa80f" stroke="none" /><line stroke="#e1ed5e" stroke-width="0.3" x1="174.80103733775053" x2="179.2010983576182" y1="140.37084112569926" y2="142.7455964860345" /><path d="M 175.68104954172406 140.8457921977663 a86.0,86.0 0 0,1 -30.038265399797805,32.042727171017184" fill="none" id="id41" stroke="none" /><text fill="#e1ed5e" style="font-size:6.75px; font-family:Arial;" text-anchor="middle"><textPath startOffset="22.206326154141568" xlink:href="#id41">May</textPath></text><line stroke="#e1ed5e" stroke-width="0.3" x1="143.8653032363475" x2="146.44561519142675" y1="172.8068346515853" y2="177.08958963109032" /><path d="M 144.38136562736335 173.6633856474863 a86.0,86.0 0 0,1 -40.68145358897372,12.25698825130547" fill="none" id="id42" stroke="none" /><text fill="#e1ed5e" style="font-size:6.75px; font-family:Arial;" text-anchor="middle"><textPath startOffset="21.466115282336833" xlink:href="#id42">June</textPath></text><line stroke="#e1ed5e" stroke-width="0.3" x1="102.19456741930631" x2="102.32365962044197" y1="184.97166512339345" y2="189.96999836594603" /><path d="M 102.22038585953345 185.97133177190398 a86.0,86.0 0 0,1 -42.740103519485714,-10.115201625700543" fill="none" id="id43" stroke="none" /><text fill="#e1ed5e" style="font-size:6.75px; font-family:Arial;" text-anchor="middle"><textPath startOffset="22.20632615414155" xlink:href="#id43">July</textPath></text><line stroke="#e1ed5e" stroke-width="0.3" x1="58.666819895761336" x2="56.23545636021788" y1="174.27360380694188" y2="178.64263932499728" /><path d="M 58.180547188652646 175.14741091055294 a86.0,86.0 0 0,1 -31.652253787137756,-30.449443065178592" fill="none" id="id44" stroke="none" /><text fill="#e1ed5e" style="font-size:6.75px; font-family:Arial;" text-anchor="middle"><textPath startOffset="22.20632615414155" xlink:href="#id44">August</textPath></text><line stroke="#e1ed5e" stroke-width="0.3" x1="26.63291911575756" x2="22.317208475507996" y1="142.92168965132927" y2="145.44649492493687" /><path d="M 25.769776987707644 143.4266507060508 a86.0,86.0 0 0,1 -11.730757126820373,-40.83630448921669" fill="none" id="id45" stroke="none" /><text fill="#e1ed5e" style="font-size:6.75px; font-family:Arial;" text-anchor="middle"><textPath startOffset="21.46611528233685" xlink:href="#id45">September</textPath></text><line stroke="#e1ed5e" stroke-width="0.3" x1="15.007084014347285" x2="10.007500721073583" y1="101.09737516637583" y2="101.16192664675087" /><path d="M 14.007167355692545 101.11028546245083 a86.0,86.0 0 0,1 10.666146001902534,-42.60595125391555" fill="none" id="id46" stroke="none" /><text fill="#e1ed5e" style="font-size:6.75px; font-family:Arial;" text-anchor="middle"><textPath startOffset="22.20632615414155" xlink:href="#id46">October</textPath></text><line stroke="#e1ed5e" stroke-width="0.3" x1="26.266209847984243" x2="21.928928074336255" y1="57.711370442889674" y2="55.22380399835377" /><path d="M 25.398753493254645 57.213857153982495 a86.0,86.0 0 0,1 29.58750427330803,-30.492523968695096" fill="none" id="id47" stroke="none" /><text fill="#e1ed5e" style="font-size:6.75px; font-family:Arial;" text-anchor="middle"><textPath startOffset="21.46611528233685" xlink:href="#id47">November</textPath></text><line stroke="#e1ed5e" stroke-width="0.3" x1="56.762969772571076" x2="54.21961505331055" y1="26.818313649435495" y2="22.513508569990535" /><path d="M 56.25429882871897 25.957352633546506 a86.0,86.0 0 0,1 42.265352541879196,-11.944610805530505" fill="none" id="id48" stroke="none" /><text fill="#e1ed5e" style="font-size:6.75px; font-family:Arial;" text-anchor="middle"><textPath startOffset="22.20632615414155" xlink:href="#id48">December</textPath></text></svg>