<?xml version="1.0" encoding="utf-8" ?>
<svg baseProfile="full" height="200mm" version="1.1" viewBox="0,0,200,200" width="200mm" xmlns="http://www.w3.org/2000/svg" xmlns:ev="http://www.w3.org/2001/xml-events" xmlns:xlink="http://www.w3.org/1999/xlink"><defs /><rect fill="#1a1a1a" height="200" width="200" x="0" y="0" /><rect fill="#1a1a1a" height="200" width="180" x="10" y="0" /><text alignment-baseline="middle" fill="#e1ed5e" style="dominant-baseline: central; font-size:9.0px; font-family:Arial;" text-anchor="middle" x="100.0" y="100.0">2025</text><line stroke="#e1ed5e" stroke-width="0.3" x1="100.0" x2="100.0" y1="15.0" y2="10.0" /><path d="M 100.0 14.0 a86.0,86.0 0 0,1 42.46469731375804,11.215312516191453" fill="none" id="id25" stroke="none" /><text fill="#e1ed5e" style="font-size:6.75px; font-family:Arial;" text-anchor="middle"><textPath startOffset="22.20632615414155" xlink:href="#id25">January</textPath></text><path d="M 101.44485096284872 79.0497635885617 l 1.9504505636259593 -28.281394737226897 a49.348572198331155,49.348572198331155 0 0,0 0.846938550535208,0.06573873183914014 l -2.436979303523508 28.243630743199294" fill="#b6ff1f" stroke="none" /><path d="M 102.16513564639614 79.11191278185805 l 2.2635176178805874 -21.837224610286693 a42.954222616311576,42.954222616311576 0 0,0 0.7347898566016534,0.08256220191995099 l -2.639074177991966 21.795026454896142" fill="#fff817" stroke="none" /><path d="M 102.88285421437855 79.19881850522331 l 2.9065371664356476 -20.97206539921226 a42.172517219468915,42.172517219468915 0 0,0 0.7182000157661305,0.10584401306107279 l -3.2671061626304336 20.918926901990215" fill="#ffee16" stroke="none" /><path d="M 104.307194497241 79.44645832069477 l 4.813245387437797 -22.96837065212542 a44.46728321670635,44.46728321670635 0 0,0 0.7478068859574076,0.16344162098465564 l -5.207894997548733 22.882115533044892" fill="#f2ff19" stroke="none" /><path d="M 106.0581310904928 79.89281104454417 l 11.513690556667688 -38.21441763795391 a60.91123633317642,60.91123633317642 0 0,0 1.0013071308803265,0.31111099967787686 l -12.169783060258734 38.01056650339351" fill="#35ff2f" stroke="none" /><path d="M 107.08798089147638 80.2323363322302 l 7.812938207664858 -21.789496488613903 a44.14787594281832,44.14787594281832 0 0,0 0.7131304666382692,0.262651969218452 l -8.186851000075704 21.651781251589128" fill="#f7ff19" stroke="none" /><path d="M 107.76421540070413 80.48803036053334 l 6.824392228904303 -17.15013392932362 a39.45804494218352,39.45804494218352 0 0,0 0.6289163865073889,0.2565507852063923 l -7.11859248500008 17.030122257933648" fill="#ffca12" stroke="none" /><path d="M 108.76106565485865 80.91482961587045 l 17.701785737547873 -38.56170130594762 a63.43062603718187,63.43062603718187 0 0,0 0.988375376679664,0.4640554920179961 l -18.362939325527137 38.25128083128962" fill="#32ff48" stroke="none" /><path d="M 109.41281617654863 81.2277094730956 l 10.323682920100635 -20.588862190531994 a44.03214439290218,44.03214439290218 0 0,0 0.6746133651139933,0.34556316773664514 l -10.676556772803384 20.408106497482848" fill="#f8ff18" stroke="none" /><path d="M 110.36928655335952 81.73862282372117 l 11.218785702900767 -19.757432309953842 a43.72041558004648,43.72041558004648 0 0,0 0.651232802448205,0.37723607334684417 l -11.557215237814301 19.56139207921695" fill="#fcff18" stroke="none" /><line stroke="#e1ed5e" stroke-width="0.3" x1="143.23703022742887" x2="145.7803849466894" y1="26.81831364943548" y2="22.513508569990506" /><path d="M 143.74570117128098 25.957352633546492 a86.0,86.0 0 0,1 28.547481713284135,27.462654790039103" fill="none" id="id26" stroke="none" /><text fill="#e1ed5e" style="font-size:6.75px; font-family:Arial;" text-anchor="middle"><textPath startOffset="19.985693538727396" xlink:href="#id26">February</textPath></text><path d="M 110.99172775467656 82.1063720568725 l 23.822995173533222 -38.78187502822383 a66.5144914257312,66.5144914257312 0 0,0 0.9704174410734929,0.6076753125739541 l -24.48703176697898 38.36605537432693" fill="#36ff6e" stroke="none" /><path d="M 112.19680574252982 82.90503203632743 l 14.57088169996661 -20.422458233865996 a46.08759442091694,46.08759442091694 0 0,0 0.6418348974468646,0.46632034895310376 l -14.920261913767265 20.168618650096217" fill="#deff1b" stroke="none" /><path d="M 113.06298171725822 83.55741782278167 l 28.304097130671877 -35.62681576811718 a66.50155949149294,66.50155949149294 0 0,0 0.8901601125342844,0.7197809045163377 l -28.913160641770652 35.134328766336715" fill="#36ff6e" stroke="none" /><path d="M 117.04232023915458 87.72973835380427 l 11.529561875244847 -8.301143206441436 a35.207032609554616,35.207032609554616 0 0,0 0.3498696857032008,0.4948658584902341 l -11.67074418075193 8.10145084761941" fill="#ff8f0d" stroke="none" /><path d="M 117.65298651832404 88.62581576622439 l 17.26186940018275 -11.12217938722431 a41.53472691589939,41.53472691589939 0 0,0 0.3820649065529566,0.6043349290810063 l -17.45076190298166 10.823396810429099" fill="#ffe615" stroke="none" /><line stroke="#e1ed5e" stroke-width="0.3" x1="172.23445277983987" x2="176.4835382374775" y1="55.19839476539836" y2="52.563006222186495" /><path d="M 173.08426987136738 54.67131705675599 a86.0,86.0 0 0,1 12.851231095245387,41.99856678651699" fill="none" id="id27" stroke="none" /><text fill="#e1ed5e" style="font-size:6.75px; font-family:Arial;" text-anchor="middle"><textPath startOffset="22.20632615414155" xlink:href="#id27">March</textPath></text><path d="M 118.03404312379186 89.2402003453031 l 24.473827027849335 -14.602020955353915 a49.49889866941675,49.49889866941675 0 0,0 0.43026405126074363,0.7354607357460192 l -24.72155075358041 14.178580807254" fill="#b4ff20" stroke="none" /><path d="M 118.3937258080291 89.86733742301442 l 20.638259468204957 -11.369122359990548 a44.56256983254137,44.56256983254137 0 0,0 0.36433487229804407,0.6750571854907953 l -20.830902439721466 11.012184191167295" fill="#f1ff19" stroke="none" /><path d="M 118.89224826269711 90.83032412892265 l 19.895824527104974 -9.656778778500861 a43.115542272127456,43.115542272127456 0 0,0 0.3183195974934644,0.6704622539397195 l -20.059102318440193 9.312874108920601" fill="#fffa17" stroke="none" /><path d="M 119.196687751892 91.48605970444005 l 31.63902234549664 -14.032251331112901 a55.611151561286654,55.611151561286654 0 0,0 0.38056376741445724,0.8783936449239459 l -31.875876822753778 13.485558541602353" fill="#6eff28" stroke="none" /><path d="M 119.47837535516314 92.15188598940014 l 24.02936864233872 -9.681773827087635 a46.90651079918503,46.90651079918503 0 0,0 0.2953020609617112,0.7515115350120208 l -24.19246425318213 9.26671328717983" fill="#d4ff1c" stroke="none" /><path d="M 119.7369772167798 92.82701384747503 l 21.40605969872979 -7.779578813546574 a43.77589160366212,43.77589160366212 0 0,0 0.25128804131548543,0.7104251316104421 l -21.53680082085509 7.409956055509517" fill="#fbff18" stroke="none" /><path d="M 120.08093135843002 93.85539295169968 l 42.031065800730694 -12.861175537972457 a64.95475319648484,64.95475319648484 0 0,0 0.3179507420554023,1.071971840430169 l -42.2462224398978 12.135774310795759" fill="#34ff5b" stroke="none" /><path d="M 120.28053869075195 94.5502522615342 l 27.28412839866705 -7.331739028433721 a49.2520452296114,49.2520452296114 0 0,0 0.21296506522564165,0.820641270231939 l -27.406289795762994 6.861001332652931" fill="#b7ff1f" stroke="none" /><path d="M 120.45610955862082 95.25157060432595 l 30.42283764974925 -7.061982933847191 a52.23172511439209,52.23172511439209 0 0,0 0.19575856871758562,0.8775472791629971 l -30.539890605468877 6.53725748513423" fill="#94ff23" stroke="none" /><path d="M 120.67395015179393 96.31383870115 l 50.41760626657663 -8.98944941029497 a72.212744725818,72.212744725818 0 0,0 0.20765682040511818,1.2256023088096217 l -50.564874948501966 8.120261313169511" fill="#3dffb1" stroke="none" /><path d="M 120.78858239683441 97.02765380044208 l 22.543006961087748 -3.223193375494427 a43.77226686967026,43.77226686967026 0 0,0 0.1002259867334224,0.746800016459687 l -22.595148946879007 2.8346750169700754" fill="#fbff18" stroke="none" /><path d="M 120.87857604477298 97.74499172005257 l 16.228095147874257 -1.752729153930624 a37.32247320768205,37.32247320768205 0 0,0 0.06348885807744827,0.6393241365443509 l -16.255861131633935 1.473129486681838" fill="#ffad10" stroke="none" /><path d="M 120.96714384426684 98.82574320788733 l 62.90143153280055 -3.5227703763380056 a84.0,84.0 0 0,0 0.0684255670660141,1.444355573508001 l -62.95275070810006 2.4395036962070047" fill="#4dd2ff" stroke="none" /><line stroke="#e1ed5e" stroke-width="0.3" x1="184.98032266829074" x2="189.97916517819016" y1="98.17113171792111" y2="98.06355123074" /><path d="M 185.9800911702706 98.14961562048488 a86.0,86.0 0 0,1 -9.607161424134198,41.387399972396054" fill="none" id="id28" stroke="none" /><text fill="#e1ed5e" style="font-size:6.75px; font-family:Arial;" text-anchor="middle"><textPath startOffset="21.466115282336823" xlink:href="#id28">April</textPath></text><path d="M 120.99824983174949 100.27111621757518 l 13.270033435396398 0.17133433981060334 a34.27113947001299,34.27113947001299 0 0,0 -0.012693274976720374,0.5898066109019077 l -13.26511809773467 -0.39973076650262584" fill="#ff820c" stroke="none" /><path d="M 120.9904718944345 100.63252640178507 l 22.39035192543916 0.67471035474217 a43.40051547192192,43.40051547192192 0 0,0 -0.02892926903644111,0.7465358895132788 l -22.375420523551515 -1.060023491269455" fill="#fffe18" stroke="none" /><path d="M 120.95626037817324 101.35467743843564 l 42.3622912867012 2.7384294340179083 a63.45070928529247,63.45070928529247 0 0,0 -0.07983743307171857,1.0893183431277023 l -42.30887729496514 -3.467220913642381" fill="#32ff49" stroke="none" /><path d="M 120.89721153311464 102.0752229133903 l 22.070826274160677 2.1917701473718254 a43.17938747583196,43.17938747583196 0 0,0 -0.07981544973362387,0.738991937027418 l -22.029828522926 -2.571358406284035" fill="#fffb17" stroke="none" /><path d="M 120.64145759157962 103.86396538481128 l 42.3339402838529 7.924676788629704 a64.06928142146174,64.06928142146174 0 0,0 -0.21225258108057765,1.0822713381373474 l -42.19125776979665 -8.652211853834995" fill="#33ff50" stroke="none" /><path d="M 120.41448212921028 104.9243191809786 l 22.78348292678476 5.495762335569213 a44.43694728253136,44.43694728253136 0 0,0 -0.1857648189844331,0.742038110197585 l -22.68550679350527 -5.887128285164195" fill="#f3ff19" stroke="none" /><path d="M 120.13307415673323 105.97154293290107 l 27.775007611164945 8.238168156563223 a49.97099346546616,49.97099346546616 0 0,0 -0.25169491713891945,0.8225535521804312 l -27.62908592151989 -8.715048681295713" fill="#afff20" stroke="none" /><path d="M 119.9155931802556 106.66101706037122 l 16.9201918575537 5.659167949848278 a38.84149865849325,38.84149865849325 0 0,0 -0.21752935153071465,0.632242118780634 l -16.820271675079756 -5.949582771718212" fill="#ffc212" stroke="none" /><path d="M 119.79798401119884 107.00284435728193 l 17.227864956303076 6.093754638301507 a39.27383858264149,39.27383858264149 0 0,0 -0.2309222020072903,0.635398722784669 l -17.120418493290558 -6.389401158092308" fill="#ffc712" stroke="none" /><path d="M 119.54520255179757 107.68017299344265 l 21.678182138316583 8.518314842959638 a44.29174249784276,44.29174249784276 0 0,0 -0.28493802959253844,0.7071928218509523 l -21.528341494466652 -8.890207032653404" fill="#f5ff19" stroke="none" /><path d="M 119.26925614724726 108.34839909993367 l 41.586965423471355 18.017539548867244 a66.32226190877941,66.32226190877941 0 0,0 -0.4628627982628157,1.0436334178725624 l -41.27066154047726 -18.730721303232496" fill="#36ff6c" stroke="none" /><line stroke="#e1ed5e" stroke-width="0.3" x1="174.80103733775053" x2="179.2010983576182" y1="140.37084112569926" y2="142.7455964860345" /><path d="M 175.68104954172406 140.8457921977663 a86.0,86.0 0 0,1 -30.038265399797805,32.042727171017184" fill="none" id="id29" stroke="none" /><text fill="#e1ed5e" style="font-size:6.75px; font-family:Arial;" text-anchor="middle"><textPath startOffset="22.206326154141568" xlink:href="#id29">May</textPath></text><path d="M 117.94076556474637 110.91462005526583 l 17.913496864483545 10.89803060139355 a41.968081478828054,41.968081478828054 0 0,0 -0.3807811203339427,0.6139404093265284 l -17.72325110448164 -11.204767342085352" fill="#ffeb16" stroke="none" /><line stroke="#e1ed5e" stroke-width="0.3" x1="143.8653032363475" x2="146.44561519142675" y1="172.8068346515853" y2="177.08958963109032" /><path d="M 144.38136562736335 173.6633856474863 a86.0,86.0 0 0,1 -40.68145358897372,12.25698825130547" fill="none" id="id30" stroke="none" /><text fill="#e1ed5e" style="font-size:6.75px; font-family:Arial;" text-anchor="middle"><textPath startOffset="21.466115282336833" xlink:href="#id30">June</textPath></text><path d="M 105.18746579009965 120.34920634021253 l 5.833400573586269 22.883056340067103 a44.61488576543621,44.61488576543621 0 0,0 -0.7458051952149166,0.18330077163357777 l -5.438642093628141 -22.98007837001471" fill="#f1ff19" stroke="none" /><path d="M 104.13013068566511 120.58985236759428 l 4.320364015087071 21.53821852505968 a42.96725750875797,42.96725750875797 0 0,0 -0.7264175204117232,0.13921964667517675 l -3.948978880103643 -21.609395370083327" fill="#fff817" stroke="none" /><path d="M 103.7750983002368 120.6578951692458 l 3.505019825758924 19.179985888609583 a40.49761582004902,40.49761582004902 0 0,0 -0.6868222632019162,0.11941285419464873 l -3.1743485910849576 -19.237477321325237" fill="#ffd814" stroke="none" /><path d="M 102.70371172650421 120.8252237178851 l 1.9586761315075238 15.086618972602372 a36.213233851243565,36.213233851243565 0 0,0 -0.6188541215161317,0.0749346157214768 l -1.6986945869400116 -15.1180991170492" fill="#ff9e0e" stroke="none" /><path d="M 101.26447882468166 120.96189622390904 l 1.930120306716834 31.99656710680263 a53.054729308146165,53.054729308146165 0 0,0 -0.9120662051111343,0.04714340481281324 l -1.37906603319222 -32.025050318377644" fill="#8bff24" stroke="none" /><path d="M 100.90346689309514 120.98055641714683 l 0.48543053556873605 11.272801268029582 a32.2832482571887,32.2832482571887 0 0,0 -0.5553943131979537,0.019128903120221693 l -0.29131587069613 -11.279486969575897" fill="#ff6609" stroke="none" /><line stroke="#e1ed5e" stroke-width="0.3" x1="102.19456741930631" x2="102.32365962044197" y1="184.97166512339345" y2="189.96999836594603" /><path d="M 102.22038585953345 185.97133177190398 a86.0,86.0 0 0,1 -42.740103519485714,-10.115201625700543" fill="none" id="id31" stroke="none" /><text fill="#e1ed5e" style="font-size:6.75px; font-family:Arial;" text-anchor="middle"><textPath startOffset="22.20632615414155" xlink:href="#id31">July</textPath></text><path d="M 100.54218724476979 120.99299961872073 l 0.40035601324250153 15.501422643981412 a36.50659178945132,36.50659178945132 0 0,0 -0.6283311360638604,0.010817290327157345 l -0.13346518728597323 -15.50601741158773" fill="#ffa20e" stroke="none" /><path d="M 99.81925306533755 120.99922214144158 l -0.14099452355835032 16.38077750230109 a37.381384283251734,37.381384283251734 0 0,0 -0.6433875775038026,-0.011076500620904662 l 0.4229417909548209 -16.375923524401024" fill="#ffae10" stroke="none" /><path d="M 98.73552117531835 120.96189622390904 l -1.573223627055573 26.080112820903377 a47.127520305834125,47.127520305834125 0 0,0 -0.8093304197348064,-0.05581616423088008 l 2.0219168075693092 -26.049168312156212" fill="#d1ff1c" stroke="none" /><path d="M 97.2962882734958 120.8252237178851 l -1.9276151981573484 14.84737346445056 a35.97198046836282,35.97198046836282 0 0,0 -0.6133589392431654,-0.08500596003971594 l 2.182902728587345 -14.81199293891824" fill="#ff9a0e" stroke="none" /><path d="M 96.93821686468263 120.77559828337769 l -1.8198092613011843 12.348237773295086 a33.4816137519693,33.4816137519693 0 0,0 -0.5694491267007291,-0.08893624227786992 l 2.0320942516104306 -12.31508322367011" fill="#ff770b" stroke="none" /><path d="M 95.51606077576429 120.51570834832081 l -3.7337122209388354 17.083137649886126 a38.48640039898849,38.48640039898849 0 0,0 -0.6459847934781874,-0.14702403584970844 l 4.027217163809885 -17.01633688045873" fill="#ffbd11" stroke="none" /><path d="M 95.16358092515715 120.4354850818985 l -3.3615429035466184 14.203640915840358 a35.59600582209116,35.59600582209116 0 0,0 -0.595040996195555,-0.14624659958935662 l 3.605537184485384 -14.143673057936972" fill="#ff950d" stroke="none" /><path d="M 94.81253420990036 120.34920634021253 l -4.167945246672096 16.349867405604495 a37.87275708828005,37.87275708828005 0 0,0 -0.630328121877752,-0.1664753859510641 l 4.448763811361337 -16.27570067034985" fill="#ffb410" stroke="none" /><path d="M 93.08242187328487 119.8279376855182 l -4.886715499981459 14.00685162431248 a35.83481987768184,35.83481987768184 0 0,0 -0.5806613453681991,-0.20820449950791237 l 5.127096405979384 -13.920659583764609" fill="#ff980e" stroke="none" /><path d="M 92.7421414339146 119.70592522655815 l -3.9579200989119916 10.74621071927535 a32.45190710460227,32.45190710460227 0 0,0 -0.5225217231041415,-0.19757300527144678 l 4.142312042776416 -10.676489463897271" fill="#ff6809" stroke="none" /><path d="M 92.40401165467489 119.57807347666478 l -5.688389902965037 14.661385776441827 a36.72622054321398,36.72622054321398 0 0,0 -0.5874077827192437,-0.2337416794590139 l 5.939918761726139 -14.561297252576747" fill="#ffa50f" stroke="none" /><path d="M 91.07499286063937 119.00905698771935 l -6.720280147445388 14.313286958936798 a36.81241122754587,36.81241122754587 0 0,0 -0.5712713561629933,-0.2742449670613832 l 6.965664171608623 -14.195487715375851" fill="#ffa60f" stroke="none" /><path d="M 90.42595943632237 118.69057910512821 l -6.291493664620808 12.282344037075845 a34.799958970122205,34.799958970122205 0 0,0 -0.5307973071349917,-0.2776880640630187 l 6.501981874282295 -12.172226554068109" fill="#ff8a0c" stroke="none" /><line stroke="#e1ed5e" stroke-width="0.3" x1="58.666819895761336" x2="56.23545636021788" y1="174.27360380694188" y2="178.64263932499728" /><path d="M 58.180547188652646 175.14741091055294 a86.0,86.0 0 0,1 -31.652253787137756,-30.449443065178592" fill="none" id="id32" stroke="none" /><text fill="#e1ed5e" style="font-size:6.75px; font-family:Arial;" text-anchor="middle"><textPath startOffset="22.20632615414155" xlink:href="#id32">August</textPath></text><path d="M 88.54995079064634 117.60387380957326 l -8.52679609707692 13.109519422002286 a36.638598119939694,36.638598119939694 0 0,0 -0.5257207912493475,-0.348419073761517 l 8.751191587066229 -12.96080232714945" fill="#ffa30f" stroke="none" /><path d="M 86.79598089348748 116.32954008644616 l -14.595155026228325 18.049971538676488 a44.212497125183866,44.212497125183866 0 0,0 -0.5876680304414709,-0.48361078081750475 l 14.903693185214484 -17.796065639001803" fill="#f6ff19" stroke="none" /><path d="M 86.51685102203217 116.09983520530335 l -8.575911283893157 10.240245704589933 a34.356978941346675,34.356978941346675 0 0,0 -0.45013290606092954,-0.38361302796997504 l 8.750909666531145 -10.091108286397006" fill="#ff830c" stroke="none" /><path d="M 85.97065885151581 115.62618273729859 l -12.389645780417904 13.79985467358376 a39.54560086856877,39.54560086856877 0 0,0 -0.5026066042107119,-0.45911921625891666 l 12.625351934095471 -13.584542690738266" fill="#ffcb12" stroke="none" /><path d="M 84.9287848128048 114.62390073753433 l -16.15969566662704 15.680075059793303 a43.51667199918222,43.51667199918222 0 0,0 -0.5170059318850823,-0.5420786526190312 l 16.42720814989108 -15.399589290591772" fill="#ffff18" stroke="none" /><path d="M 84.19399662182784 113.82643327865904 l -13.814041643317513 12.083948137940636 a39.3534615025,39.3534615025 0 0,0 -0.4416160941610533,-0.51369928690954 l 14.020000247049344 -11.844371751869566" fill="#ffc912" stroke="none" /><path d="M 83.95833913139862 113.55231037782056 l -14.603373999430667 12.337217363262598 a40.117151054370936,40.117151054370936 0 0,0 -0.4411052691109278,-0.5313397124971468 l 14.813575268435132 -12.084016393651691" fill="#ffd313" stroke="none" /><path d="M 83.28015986056508 112.70617746262583 l -14.775264988601704 11.228405142445368 a39.55762747568484,39.55762747568484 0 0,0 -0.407328155137609,-0.5456826284226011 l 14.966354410434397 -10.972409634513458" fill="#ffcb12" stroke="none" /><path d="M 82.6465618267979 111.8261652097733 l -18.504051329183323 12.610294622017703 a43.39239705898276,43.39239705898276 0 0,0 -0.41532081226857576,-0.6208482628737249 l 18.718375246862628 -12.289909444938157" fill="#fffe18" stroke="none" /><path d="M 82.44556493220864 111.52570212397912 l -27.83580380380633 18.276132600407394 a54.299384322111315,54.299384322111315 0 0,0 -0.5062645415185757,-0.7857338110977896 l 28.14627320870195 -17.794277189388158" fill="#7cff26" stroke="none" /><line stroke="#e1ed5e" stroke-width="0.3" x1="26.63291911575756" x2="22.317208475507996" y1="142.92168965132927" y2="145.44649492493687" /><path d="M 25.769776987707644 143.4266507060508 a86.0,86.0 0 0,1 -11.730757126820373,-40.83630448921669" fill="none" id="id33" stroke="none" /><text fill="#e1ed5e" style="font-size:6.75px; font-family:Arial;" text-anchor="middle"><textPath startOffset="21.46611528233685" xlink:href="#id33">September</textPath></text><path d="M 81.87401531095188 110.60418214915194 l -12.846822160015519 7.515731948338091 a35.883785349511584,35.883785349511584 0 0,0 -0.30731557931458237,-0.5358306162422509 l 12.974289735482477 -7.293481486237533" fill="#ff990e" stroke="none" /><path d="M 81.69416730710424 110.29060199501025 l -10.024884073193409 5.635476614149672 a32.50029988085505,32.50029988085505 0 0,0 -0.2699437618629137,-0.4900263382471641 l 10.120404244507839 -5.462079757504686" fill="#ff6909" stroke="none" /><path d="M 81.02952815118164 109.00673069616217 l -6.322767022646086 3.001900020272585 a27.999198993768744,27.999198993768744 0 0,0 -0.20296137119068505,-0.43716073725350607 l 6.373503010676597 -2.8926192157402517" fill="#ff2603" stroke="none" /><path d="M 80.58989483394504 108.01547362559985 l -21.973052190181757 9.073851934215337 a44.77287974723539,44.77287974723539 0 0,0 -0.28803328600094524,-0.7148749944164802 l 22.12598809044009 -8.69427757195605" fill="#efff19" stroke="none" /><path d="M 80.32549172779594 107.34259656027581 l -16.162966022272904 6.032076485828268 a38.25188156022498,38.25188156022498 0 0,0 -0.22491330207568616,-0.6188648108927391 l 16.264403585353815 -5.752963877929412" fill="#ffba11" stroke="none" /><path d="M 79.86692584326677 105.97154293290107 l -27.475732911920883 8.149402193583382 a49.6588320620362,49.6588320620362 0 0,0 -0.23601509921083924,-0.8215995226251032 l 27.611940648017825 -7.675245195453683" fill="#b2ff20" stroke="none" /><path d="M 79.76711848015287 105.62410040840567 l -20.1673880077745 5.605895285836539 a41.93202333774475,41.93202333774475 0 0,0 -0.18732017962835354,-0.6970880732143616 l 20.260896263744627 -5.257916279446638" fill="#ffeb16" stroke="none" /><path d="M 79.4281124754447 104.21870165774334 l -37.98501014100635 7.789631605752483 a59.77549942896536,59.77549942896536 0 0,0 -0.19802788103267294,-1.0097398990515603 l 38.11346795501469 -7.134627979632968" fill="#41ff2d" stroke="none" /><path d="M 79.29508885075956 103.50808413554451 l -9.922279520848477 1.6811562785577887 a31.06369302606073,31.06369302606073 0 0,0 -0.08478649463396229,-0.527965583020721 l 9.94974776984373 -1.510111465843854" fill="#ff5407" stroke="none" /><path d="M 79.23777060512086 103.15116336523772 l -23.190598621902094 3.519726297470459 a44.456179093178676,44.456179093178676 0 0,0 -0.10831631387992942,-0.7575640469973447 l 23.247748986798623 -3.120016778492714" fill="#f3ff19" stroke="none" /><path d="M 79.1416061653843 102.43462659150553 l -17.09260257021472 1.9950771409071573 a38.20864304416479,38.20864304416479 0 0,0 -0.0706272183686819,-0.6539203259935362 l 17.124412090084455 -1.700560493028839" fill="#ffb911" stroke="none" /><line stroke="#e1ed5e" stroke-width="0.3" x1="15.007084014347285" x2="10.007500721073583" y1="101.09737516637583" y2="101.16192664675087" /><path d="M 14.007167355692545 101.11028546245083 a86.0,86.0 0 0,1 10.666146001902534,-42.60595125391555" fill="none" id="id34" stroke="none" /><text fill="#e1ed5e" style="font-size:6.75px; font-family:Arial;" text-anchor="middle"><textPath startOffset="22.20632615414155" xlink:href="#id34">October</textPath></text><path d="M 79.00175016825051 100.2711162175752 l -36.15898937353527 0.46686216750656295 a57.16200316352629,57.16200316352629 0 0,0 -0.004234623012330247,-0.9839772547860133 l 36.1616682938371 0.15562456548312562" fill="#5dff2a" stroke="none" /><path d="M 79.00486145842228 99.54816195383935 l -21.921433263659633 -0.4717729085367917 a42.92650920712899,42.92650920712899 0 0,0 0.022256997533323133,-0.7386013925415018 l 21.910064571670663 0.8490444485032879" fill="#fff817" stroke="none" /><path d="M 79.01574976396665 99.18683210126434 l -31.51726721566286 -1.2213364626981922 a52.540922553067674,52.540922553067674 0 0,0 0.04279931452219875,-0.9034258848425424 l 31.491574292907163 1.7636734541637435" fill="#91ff24" stroke="none" /><path d="M 79.05617556472873 98.46500227214037 l -40.023432586746985 -2.933364833708992 a61.13078351183193,61.13078351183193 0 0,0 0.08594847322406737,-1.0487890728332026 l 39.967009629703426 3.621867823749973" fill="#33ff2f" stroke="none" /><path d="M 79.12142395522702 97.74499172005258 l -20.157624062922462 -2.17714125084395 a41.27485516318765,41.27485516318765 0 0,0 0.08237212427224715,-0.7057140569560446 l 20.117161585646627 2.523799046124856" fill="#ffe215" stroke="none" /><path d="M 79.21141760316559 97.0276538004421 l -28.3907186080721 -4.0592976926734075 a49.679449102806615,49.679449102806615 0 0,0 0.1283246348099716,-0.8454990097721414 l 28.316638079822827 4.547395814837641" fill="#b2ff20" stroke="none" /><path d="M 79.32604984820605 96.31383870115002 l -43.52001535928235 -7.759610290480611 a65.20637158523988,65.20637158523988 0 0,0 0.2065311715455619,-1.1032977768265384 l 43.37999846382692 8.507586144769721" fill="#34ff5e" stroke="none" /><path d="M 79.46518482838121 95.60439243477599 l -19.664170777887524 -4.209240604931403 a41.10963248923582,41.10963248923582 0 0,0 0.15407422977077415,-0.6906845611419357 l 19.58880216111471 4.547103335623298" fill="#ffe015" stroke="none" /><path d="M 79.54389044137918 95.25157060432595 l -29.025055181427266 -6.7375189226275705 a50.79677817344792,50.79677817344792 0 0,0 0.2050428876921783,-0.8500351444891052 l 28.904779493474273 7.236139298776073" fill="#a5ff21" stroke="none" /><path d="M 79.71946130924805 94.55025226153421 l -18.627289152135884 -5.005489670592026 a40.28810068409232,40.28810068409232 0 0,0 0.18573433976069464,-0.6681852416661391 l 18.538368041808827 5.325386215677107" fill="#ffd513" stroke="none" /><path d="M 79.91906864156998 93.8553929516997 l -43.847207765177224 -13.41690069415486 a66.85401676014251,66.85401676014251 0 0,0 0.34619084336829,-1.0975195786564205 l 43.60976143804073 14.169670439237695" fill="#36ff72" stroke="none" /><path d="M 80.14247586403 93.16781622104843 l -21.777444064501278 -7.4927518186920645 a44.030379931711835,44.030379931711835 0 0,0 0.25274888816864044,-0.7145551423840716 l 21.64524209552283 7.866504587502747" fill="#f8ff18" stroke="none" /><path d="M 80.95270993114464 91.15688171328213 l -17.97947359590765 -8.347361286921736 a40.822712005180826,40.822712005180826 0 0,0 0.30139176197910705,-0.6348079152101951 l 17.83312364008679 8.655611617772463" fill="#ffdc14" stroke="none" /><line stroke="#e1ed5e" stroke-width="0.3" x1="26.266209847984243" x2="21.928928074336255" y1="57.711370442889674" y2="55.22380399835377" /><path d="M 25.398753493254645 57.213857153982495 a86.0,86.0 0 0,1 29.58750427330803,-30.492523968695096" fill="none" id="id35" stroke="none" /><text fill="#e1ed5e" style="font-size:6.75px; font-family:Arial;" text-anchor="middle"><textPath startOffset="21.46611528233685" xlink:href="#id35">November</textPath></text><path d="M 81.78341655067845 89.55222093294921 l -13.124156414996664 -7.527113250778607 a36.129471752025744,36.129471752025744 0 0,0 0.31405169213476086,-0.5368161432100257 l 12.992645048391577 7.7519088063425245" fill="#ff9c0e" stroke="none" /><path d="M 81.96595687620814 89.24020034530311 l -19.44470464373752 -11.601454253780163 a43.64266502611257,43.64266502611257 0 0,0 0.39046510852824756,-0.641821972532956 l 19.242123736923055 11.934443999520195" fill="#fdff18" stroke="none" /><path d="M 82.15384107792192 88.93136811851018 l -17.167379232016184 -10.647635825658886 a41.201263781548796,41.201263781548796 0 0,0 0.3789974839231399,-0.5994830031237777 l 16.98155415184708 10.94156647649688" fill="#ffe115" stroke="none" /><path d="M 82.34701348167596 88.62581576622439 l -19.307768067527892 -12.44039420270975 a43.968528809400574,43.968528809400574 0 0,0 0.4154049549593948,-0.6326902456989709 l 19.09076647721058 12.770902512386389" fill="#f9ff18" stroke="none" /><path d="M 82.7489923806493 88.02491185347247 l -19.42559822732316 -13.484618186029131 a44.64717306809354,44.64717306809354 0 0,0 0.4436810276544421,-0.6275553488000758 l 19.190604579864843 13.817000035160993" fill="#f0ff19" stroke="none" /><path d="M 83.17141714833178 87.43820079747576 l -24.994799217305204 -18.65752164889351 a52.19043285997055,52.19043285997055 0 0,0 0.5435858741235158,-0.7152952919266028 l 24.669937402957576 19.08500171670114" fill="#95ff23" stroke="none" /><path d="M 83.84228863543731 86.58626213691792 l -17.670784376024976 -14.669854170987707 a43.96652437488123,43.96652437488123 0 0,0 0.48842492850092584,-0.5781410581922277 l 17.415648834036926 14.97185417880905" fill="#f9ff18" stroke="none" /><path d="M 84.07557802195018 86.31012108654704 l -3.4160337567117867 -2.9366898565055037 a25.50482340833653,25.50482340833653 0 0,0 0.2890645471044938,-0.3304507471999715 l 3.364977346029449 2.995056159908418" fill="#ff0000" stroke="none" /><path d="M 85.31137513191541 84.99185889309783 l -8.419320873942159 -8.602463255424409 a33.03691563646291,33.03691563646291 0 0,0 0.40984143346005664,-0.39426713427162813 l 8.269996196869673 8.74611347645835" fill="#ff710a" stroke="none" /><path d="M 85.57189188830299 84.74124197986013 l -11.850985605362913 -12.533266333497433 a38.2490180823402,38.2490180823402 0 0,0 0.48228754479960356,-0.4482337112958002 l 11.633490176768452 12.735404630867881" fill="#ffba11" stroke="none" /><path d="M 85.83668400450813 84.49514656593479 l -12.063001152450461 -13.205598526731785 a38.88585556391536,38.88585556391536 0 0,0 0.4980889468868235,-0.4471891744542959 l 11.833901217967666 13.41128670995536" fill="#ffc212" stroke="none" /><path d="M 86.10567301691215 84.25364557470407 l -15.268009851647056 -17.30314068364578 a44.07619557786832,44.07619557786832 0 0,0 0.5732134449701665,-0.4970850509390423 l 14.967902608030116 17.563390728004503" fill="#f7ff18" stroke="none" /><path d="M 86.65592168130627 83.78471172551755 l -24.489274201825193 -29.758566409127184 a59.539548851259454,59.539548851259454 0 0,0 0.7969697539567587,-0.6444274488350233 l 23.973401049303934 30.175699955226342" fill="#43ff2d" stroke="none" /><path d="M 87.22198572758235 83.33499621200491 l -13.982091017312687 -18.23535291164777 a43.97883732978579,43.97883732978579 0 0,0 0.6047170682004641,-0.45546035866900286 l 13.666127795353832 18.473329859822627" fill="#f9ff18" stroke="none" /><path d="M 89.00827224532344 82.1063720568725 l -7.734950355012198 -12.591862435117505 a35.77783666777471,35.77783666777471 0 0,0 0.5275321629053423,-0.31783222555281465 l 7.517056125889206 12.72314127012894" fill="#ff970e" stroke="none" /><line stroke="#e1ed5e" stroke-width="0.3" x1="56.762969772571076" x2="54.21961505331055" y1="26.818313649435495" y2="22.513508569990535" /><path d="M 56.25429882871897 25.957352633546506 a86.0,86.0 0 0,1 42.265352541879196,-11.944610805530505" fill="none" id="id36" stroke="none" /><text fill="#e1ed5e" style="font-size:6.75px; font-family:Arial;" text-anchor="middle"><textPath startOffset="22.20632615414155" xlink:href="#id36">December</textPath></text><path d="M 89.63071344664047 81.73862282372117 l -11.698452971165768 -20.602175567826727 a44.69184332309611,44.69184332309611 0 0,0 0.6722417486063048,-0.3741018052787128 l 11.342087133487418 20.800492770665624" fill="#f0ff19" stroke="none" /><path d="M 90.58718382345135 81.22770947309562 l -8.4296088464516 -16.811447639655825 a39.806463703872254,39.806463703872254 0 0,0 0.6151591062196727,-0.30185590181532634 l 8.138978473221501 16.954058701605984" fill="#ffcf13" stroke="none" /><path d="M 91.23893434514133 80.91482961587045 l -14.914530427185246 -32.4899236709015 a56.749662348117916,56.749662348117916 0 0,0 0.8912882577801005,-0.399895060836813 l 14.353060050938371 32.74183906225484" fill="#61ff29" stroke="none" /><path d="M 91.90106846888425 80.62456947434976 l -8.862427977713372 -21.201976694215627 a43.97969637315122,43.97969637315122 0 0,0 0.7009863707951959,-0.28594994136692486 l 8.496157737329796 21.35138752176613" fill="#f9ff18" stroke="none" /><path d="M 92.57280143429618 80.3572730644239 l -7.369027378881437 -19.488881481174683 a41.835524133027654,41.835524133027654 0 0,0 0.6757785331662468,-0.24889493689477207 l 7.032466519942621 19.612839685875777" fill="#ffea15" stroke="none" /></svg>