<?xml version="1.0" encoding="utf-8" ?>
<svg baseProfile="full" height="200mm" version="1.1" viewBox="0,0,200,200" width="200mm" xmlns="http://www.w3.org/2000/svg" xmlns:ev="http://www.w3.org/2001/xml-events" xmlns:xlink="http://www.w3.org/1999/xlink"><defs /><rect fill="#1a1a1a" height="200" width="200" x="0" y="0" /><text alignment-baseline="middle" fill="#e1ed5e" style="dominant-baseline: central; font-size:9.0px; font-family:Arial;" text-anchor="middle" x="100.0" y="100.0">2025</text><line stroke="#e1ed5e" stroke-width="0.3" x1="100.0" x2="100.0" y1="15.0" y2="10.0" /><path d="M 100.0 14.0 a86.0,86.0 0 0,1 42.46469731375804,11.215312516191453" fill="none" id="id25" stroke="none" /><text fill="#e1ed5e" style="font-size:6.75px; font-family:Arial;" text-anchor="middle"><textPath startOffset="22.20632615414155" xlink:href="#id25">January</textPath></text><path d="M 101.44485096284872 79.0497635885617 l 2.399371214456477 -34.79071231163809 a55.873351507647335,55.873351507647335 0 0,0 0.9589192398363108,0.07443058852753308 l -2.9978806436551286 34.744256460922095" fill="#c8ff1d" stroke="none" /><path d="M 102.16513564639614 79.11191278185805 l 2.7844945763000077 -26.863335636734664 a48.00726220069896,48.00726220069896 0 0,0 0.8212289074204785,0.09227463643895616 l -3.2464901872302114 26.811425046825107" fill="#ffb310" stroke="none" /><path d="M 102.88285421437855 79.19881850522331 l 3.5755131357592176 -25.799049186369672 a47.045637506206454,47.045637506206454 0 0,0 0.8011894908442136,0.11807450441622273 l -4.019071607032087 25.73368019779248" fill="#ffa20e" stroke="none" /><path d="M 104.307194497241 79.44645832069477 l 5.921074159021027 -28.25482912175217 a49.86857266814626,49.86857266814626 0 0,0 0.8386404416111602,0.18329431805743282 l -6.406557324785716 28.14872130559887" fill="#ffd313" stroke="none" /><path d="M 106.0581310904928 79.89281104454417 l 14.163710790224176 -47.00994496741735 a70.09730775906883,70.09730775906883 0 0,0 1.1523150462870964,0.35802989406362695 l -14.97081120922199 46.7591749384712" fill="#35ff6a" stroke="none" /><path d="M 107.08798089147638 80.2323363322302 l 9.611183890223023 -26.804622289471517 a49.4756498056307,49.4756498056307 0 0,0 0.7991911837122155,0.29434885761305457 l -10.071157399707815 26.63521016405214" fill="#ffcc13" stroke="none" /><path d="M 107.76421540070413 80.48803036053334 l 8.395111660637596 -21.09745227153768 a43.70639540183302,43.70639540183302 0 0,0 0.6966302639591163,0.2841729760131602 l -8.7570257941851 20.949818409340942" fill="#ff6509" stroke="none" /><path d="M 108.76106565485865 80.91482961587045 l 21.77607365971349 -47.43716032563995 a73.19656659009036,73.19656659009036 0 0,0 1.1405481641113073,0.5355026561314625 l -22.58940003512439 47.05529268686848" fill="#3bff99" stroke="none" /><path d="M 109.41281617654863 81.2277094730956 l 12.699807976479269 -25.327646954833227 a49.33328118852667,49.33328118852667 0 0,0 0.7558317064401613,0.3871663567014001 l -13.133900170508186 25.105288072819324" fill="#ffca12" stroke="none" /><path d="M 110.36928655335952 81.73862282372117 l 13.800929887017674 -24.30485306325692 a48.94980408111812,48.94980408111812 0 0,0 0.7291266029407503,0.42235719028905666 l -14.217253222423754 24.063691715577814" fill="#ffc312" stroke="none" /><line stroke="#e1ed5e" stroke-width="0.3" x1="143.23703022742887" x2="145.7803849466894" y1="26.81831364943548" y2="22.513508569990506" /><path d="M 143.74570117128098 25.957352633546492 a86.0,86.0 0 0,1 28.547481713284135,27.462654790039103" fill="none" id="id26" stroke="none" /><text fill="#e1ed5e" style="font-size:6.75px; font-family:Arial;" text-anchor="middle"><textPath startOffset="19.985693538727396" xlink:href="#id26">February</textPath></text><path d="M 110.99172775467656 82.1063720568725 l 29.306156191545952 -47.7080097905078 a76.99022226152059,76.99022226152059 0 0,0 1.1232537883586917,0.7033814192227121 l -30.123029132276905 47.19648402996215" fill="#41ffd0" stroke="none" /><path d="M 112.19680574252982 82.90503203632743 l 17.924552804433475 -25.122943041264765 a51.861818810523104,51.861818810523104 0 0,0 0.7222491339785079,0.5247447116504245 l -18.354347254765774 24.810679094797667" fill="#fff517" stroke="none" /><path d="M 113.06298171725822 83.55741782278167 l 34.8186399455638 -43.82677408539409 a76.97431388048435,76.97431388048435 0 0,0 1.0303437156968698,0.8331329624910079 l -35.56788705982516 43.22093502563895" fill="#41ffd0" stroke="none" /><path d="M 117.04232023915458 87.72973835380427 l 14.183235091757208 -10.211755390297673 a38.476959284135404,38.476959284135404 0 0,0 0.38236456337708963,0.5408275584994928 l -14.35691227493818 9.966101331466389" fill="#ff0000" stroke="none" /><path d="M 117.65298651832404 88.62581576622439 l 21.23490506188923 -13.682088416594624 a46.26105176802743,46.26105176802743 0 0,0 0.42554088429619713,0.6731034850921743 l -21.467273542431382 13.314537283788244" fill="#ff940d" stroke="none" /><line stroke="#e1ed5e" stroke-width="0.3" x1="172.23445277983987" x2="176.4835382374775" y1="55.19839476539836" y2="52.563006222186495" /><path d="M 173.08426987136738 54.67131705675599 a86.0,86.0 0 0,1 12.851231095245387,41.99856678651699" fill="none" id="id27" stroke="none" /><text fill="#e1ed5e" style="font-size:6.75px; font-family:Arial;" text-anchor="middle"><textPath startOffset="22.20632615414155" xlink:href="#id27">March</textPath></text><path d="M 118.03404312379186 89.2402003453031 l 30.10678515688326 -17.962859149853998 a56.058277500758926,56.058277500758926 0 0,0 0.4872807725533934,0.8329207946769147 l -30.411525603906977 17.441958942823188" fill="#c5ff1e" stroke="none" /><path d="M 118.3937258080291 89.86733742301442 l 25.3884136352769 -13.98586841057003 a49.98579069326374,49.98579069326374 0 0,0 0.40867406743782964,0.7572109801281236 l -25.625395801933195 13.546776447109448" fill="#ffd513" stroke="none" /><path d="M 118.89224826269711 90.83032412892265 l 24.475097984266313 -11.879407485435003 a48.205711597832654,48.205711597832654 0 0,0 0.3559000282510179,0.749616225319858 l -24.67595620635909 11.456348844474604" fill="#ffb610" stroke="none" /><path d="M 119.196687751892 91.48605970444005 l 38.92114000992848 -17.261949903154555 a63.577342027555844,63.577342027555844 0 0,0 0.435078794898531,1.0042218445452573 l -39.21250951466969 16.589428914022694" fill="#56ff2a" stroke="none" /><path d="M 119.47837535516314 92.15188598940014 l 29.560029101587272 -11.910155457827376 a52.8692190603457,52.8692190603457 0 0,0 0.3328405605950022,0.8470429220588607 l -29.760663212063974 11.39956353087273" fill="#f8ff18" stroke="none" /><path d="M 119.7369772167798 92.82701384747503 l 26.33293271508867 -9.570146413307787 a49.01804860709495,49.01804860709495 0 0,0 0.2813797497285858,0.7954984434873114 l -26.493765545627067 9.11545034339386" fill="#ffc412" stroke="none" /><path d="M 120.08093135843002 93.85539295169968 l 51.705042555766674 -15.821336333957316 a75.07149072372465,75.07149072372465 0 0,0 0.36747174006821137,1.238932027522545 l -51.96972019294659 14.92897491968824" fill="#3effb5" stroke="none" /><path d="M 120.28053869075195 94.5502522615342 l 33.56391262211477 -9.019230686897084 a55.754607646877865,55.754607646877865 0 0,0 0.24108204235564676,0.9289874527506649 l -33.71419099634072 8.440146808597568" fill="#caff1d" stroke="none" /><path d="M 120.45610955862082 95.25157060432595 l 37.425035158640185 -8.687386845096826 a59.42009821463,59.42009821463 0 0,0 0.2226997740181708,0.9983194198860325 l -37.569029319660395 8.041889255660829" fill="#92ff23" stroke="none" /><path d="M 120.67395015179393 96.31383870115 l 62.02185045538181 -11.058483896549978 a84.0,84.0 0 0,0 0.2415525539191079,1.4256568467366484 l -62.20301487082114 9.98924126149749" fill="#4dd2ff" stroke="none" /><line stroke="#e1ed5e" stroke-width="0.3" x1="184.98032266829074" x2="189.97916517819016" y1="98.17113171792111" y2="98.06355123074" /><path d="M 185.9800911702706 98.14961562048488 a86.0,86.0 0 0,1 -9.607161424134198,41.387399972396054" fill="none" id="id28" stroke="none" /><text fill="#e1ed5e" style="font-size:6.75px; font-family:Arial;" text-anchor="middle"><textPath startOffset="21.466115282336823" xlink:href="#id28">April</textPath></text><line stroke="#e1ed5e" stroke-width="0.3" x1="174.80103733775053" x2="179.2010983576182" y1="140.37084112569926" y2="142.7455964860345" /><path d="M 175.68104954172406 140.8457921977663 a86.0,86.0 0 0,1 -30.038265399797805,32.042727171017184" fill="none" id="id29" stroke="none" /><text fill="#e1ed5e" style="font-size:6.75px; font-family:Arial;" text-anchor="middle"><textPath startOffset="22.206326154141568" xlink:href="#id29">May</textPath></text><line stroke="#e1ed5e" stroke-width="0.3" x1="143.8653032363475" x2="146.44561519142675" y1="172.8068346515853" y2="177.08958963109032" /><path d="M 144.38136562736335 173.6633856474863 a86.0,86.0 0 0,1 -40.68145358897372,12.25698825130547" fill="none" id="id30" stroke="none" /><text fill="#e1ed5e" style="font-size:6.75px; font-family:Arial;" text-anchor="middle"><textPath startOffset="21.466115282336833" xlink:href="#id30">June</textPath></text><line stroke="#e1ed5e" stroke-width="0.3" x1="102.19456741930631" x2="102.32365962044197" y1="184.97166512339345" y2="189.96999836594603" /><path d="M 102.22038585953345 185.97133177190398 a86.0,86.0 0 0,1 -42.740103519485714,-10.115201625700543" fill="none" id="id31" stroke="none" /><text fill="#e1ed5e" style="font-size:6.75px; font-family:Arial;" text-anchor="middle"><textPath startOffset="22.20632615414155" xlink:href="#id31">July</textPath></text><line stroke="#e1ed5e" stroke-width="0.3" x1="58.666819895761336" x2="56.23545636021788" y1="174.27360380694188" y2="178.64263932499728" /><path d="M 58.180547188652646 175.14741091055294 a86.0,86.0 0 0,1 -31.652253787137756,-30.449443065178592" fill="none" id="id32" stroke="none" /><text fill="#e1ed5e" style="font-size:6.75px; font-family:Arial;" text-anchor="middle"><textPath startOffset="22.20632615414155" xlink:href="#id32">August</textPath></text><line stroke="#e1ed5e" stroke-width="0.3" x1="26.63291911575756" x2="22.317208475507996" y1="142.92168965132927" y2="145.44649492493687" /><path d="M 25.769776987707644 143.4266507060508 a86.0,86.0 0 0,1 -11.730757126820373,-40.83630448921669" fill="none" id="id33" stroke="none" /><text fill="#e1ed5e" style="font-size:6.75px; font-family:Arial;" text-anchor="middle"><textPath startOffset="21.46611528233685" xlink:href="#id33">September</textPath></text><line stroke="#e1ed5e" stroke-width="0.3" x1="15.007084014347285" x2="10.007500721073583" y1="101.09737516637583" y2="101.16192664675087" /><path d="M 14.007167355692545 101.11028546245083 a86.0,86.0 0 0,1 10.666146001902534,-42.60595125391555" fill="none" id="id34" stroke="none" /><text fill="#e1ed5e" style="font-size:6.75px; font-family:Arial;" text-anchor="middle"><textPath startOffset="22.20632615414155" xlink:href="#id34">October</textPath></text><line stroke="#e1ed5e" stroke-width="0.3" x1="26.266209847984243" x2="21.928928074336255" y1="57.711370442889674" y2="55.22380399835377" /><path d="M 25.398753493254645 57.213857153982495 a86.0,86.0 0 0,1 29.58750427330803,-30.492523968695096" fill="none" id="id35" stroke="none" /><text fill="#e1ed5e" style="font-size:6.75px; font-family:Arial;" text-anchor="middle"><textPath startOffset="21.46611528233685" xlink:href="#id35">November</textPath></text><line stroke="#e1ed5e" stroke-width="0.3" x1="56.762969772571076" x2="54.21961505331055" y1="26.818313649435495" y2="22.513508569990535" /><path d="M 56.25429882871897 25.957352633546506 a86.0,86.0 0 0,1 42.265352541879196,-11.944610805530505" fill="none" id="id36" stroke="none" /><text fill="#e1ed5e" style="font-size:6.75px; font-family:Arial;" text-anchor="middle"><textPath startOffset="22.20632615414155" xlink:href="#id36">December</textPath></text></svg>