<?xml version="1.0" encoding="utf-8" ?>
<svg baseProfile="full" height="200mm" version="1.1" viewBox="0,0,200,200" width="200mm" xmlns="http://www.w3.org/2000/svg" xmlns:ev="http://www.w3.org/2001/xml-events" xmlns:xlink="http://www.w3.org/1999/xlink"><defs /><rect fill="#1a1a1a" height="200" width="200" x="0" y="0" /><rect fill="#1a1a1a" height="200" width="180" x="10" y="0" /><text alignment-baseline="middle" fill="#e1ed5e" style="dominant-baseline: central; font-size:9.0px; font-family:Arial;" text-anchor="middle" x="100.0" y="100.0">2026</text><line stroke="#e1ed5e" stroke-width="0.3" x1="100.0" x2="100.0" y1="15.0" y2="10.0" /><path d="M 100.0 14.0 a86.0,86.0 0 0,1 42.46469731375804,11.215312516191453" fill="none" id="id37" stroke="none" /><text fill="#e1ed5e" style="font-size:6.75px; font-family:Arial;" text-anchor="middle"><textPath startOffset="22.20632615414155" xlink:href="#id37">January</textPath></text><path d="M 100.72285384407766 79.0124445844662 l 1.0114335302649093 -29.36626461833295 a50.38367736380349,50.38367736380349 0 0,0 0.8665012846607499,0.037313368051362365 l -1.5167756473149907 29.344503523757393" fill="red" stroke="none" /><path d="M 101.08401301168833 79.027996857942 l 2.8941679222897765 -55.992407937402014 a77.06715575620767,77.06715575620767 0 0,0 1.3242264088013564,0.0798809532843581 l -3.857556379930745 55.93429371473735" fill="red" stroke="none" /><path d="M 101.80526077348638 79.07773832637324 l 2.52800995390727 -29.298640144401393 a50.40750157082684,50.40750157082684 0 0,0 0.8638282486428392,0.08203090088253838 l -3.0319633296403534 29.250783699003676" fill="red" stroke="none" /><path d="M 102.52436894288641 79.15227682838746 l 0.5117940525104461 -4.226696243305684 a25.257569058202044,25.257569058202044 0 0,0 0.4311650714791136,0.05597760079839713 l -0.5844738524974058 4.21726031934315" fill="red" stroke="none" /><path d="M 103.2404852339499 79.25152402106235 l 3.4700739634363127 -22.21850774729015 a43.48785227246282,43.48785227246282 0 0,0 0.738611752063554,0.12187726776018917 l -3.852014921638742 22.155484216590338" fill="red" stroke="none" /><path d="M 103.95276090670814 79.375362276772 l 3.613697894394565 -18.855481439971435 a40.19864559819413,40.19864559819413 0 0,0 0.6784642997107849,0.13609355586123553 l -3.937728603572475 18.79048392803299" fill="red" stroke="none" /><path d="M 106.40334571778207 80.00007090966166 l 9.590936610455648 -29.95591064002133 a52.45381769100091,52.45381769100091 0 0,0 0.8575379358231041,0.28271677489663727 l -10.10515736852117 29.786380140865457" fill="red" stroke="none" /><path d="M 106.74666289553966 80.11325718540242 l 8.62428598012597 -25.421302338922644 a47.8443834213772,47.8443834213772 0 0,0 0.7776261460101334,0.27129849325330374 l -9.060594130199377 25.269082992497133" fill="red" stroke="none" /><path d="M 107.4271985657038 80.35727306442388 l 9.491365535774724 -25.10183345923434 a47.836319843615456,47.836319843615456 0 0,0 0.7676973862742336,0.2978546589799113 l -9.922046087048626 24.934736096363878" fill="red" stroke="none" /><path d="M 108.76106565485865 80.91482961587045 l 10.838431737969465 -23.61052006284069 a46.97938144329896,46.97938144329896 0 0,0 0.732032248948322,0.3436989563620553 l -11.243242198217384 23.42045612383863" fill="red" stroke="none" /><path d="M 109.73455568895987 81.39251694778311 l 14.319454169071076 -27.371459908557632 a51.890833352726254,51.890833352726254 0 0,0 0.787888059728128,0.4208625152153137 l -14.788487275327514 27.120918666840563" fill="red" stroke="none" /><line stroke="#e1ed5e" stroke-width="0.3" x1="143.23703022742887" x2="145.7803849466894" y1="26.81831364943548" y2="22.513508569990506" /><path d="M 143.74570117128098 25.957352633546492 a86.0,86.0 0 0,1 28.547481713284135,27.462654790039103" fill="none" id="id38" stroke="none" /><text fill="#e1ed5e" style="font-size:6.75px; font-family:Arial;" text-anchor="middle"><textPath startOffset="19.985693538727396" xlink:href="#id38">February</textPath></text><path d="M 110.99172775467656 82.1063720568725 l 9.791989533518759 -15.940552881801166 a39.7078669335133,39.7078669335133 0 0,0 0.5793204727894851,0.3627704269138132 l -10.064929158680508 15.76963811356441" fill="red" stroke="none" /><path d="M 111.2981086023043 82.29822771554956 l 17.16368084425366 -26.891896738007596 a52.90244583556351,52.90244583556351 0 0,0 0.7633897859446112,0.49652995184675547 l -17.62403765598255 26.592467862001314" fill="red" stroke="none" /><path d="M 112.77801427241765 83.33499621200491 l 24.272681285144188 -31.656274358284296 a60.89088571362081,60.89088571362081 0 0,0 0.8262819102804605,0.6449261372403864 l -24.81399575058408 31.233769831820688" fill="red" stroke="none" /><path d="M 113.06298171725822 83.55741782278167 l 12.092476745711203 -15.220992183949152 a40.43981987852273,40.43981987852273 0 0,0 0.5413093300246129,0.4377011660059553 l -12.352689474300306 15.010584920679067" fill="red" stroke="none" /><path d="M 113.34407831869373 83.78471172551755 l 23.327061208321766 -28.346283126916052 a57.71053733913569,57.71053733913569 0 0,0 0.7616209743609947,0.6378356629806745 l -23.811539719641875 27.94054630654156" fill="red" stroke="none" /><path d="M 114.16331599549186 84.49514656593476 l 24.77649174320165 -27.123300307000484 a57.73619417746852,57.73619417746852 0 0,0 0.7280042398992159,0.6766006002180498 l -25.23970386689571 26.692795120707792" fill="red" stroke="none" /><path d="M 114.68862486808459 84.99185889309783 l 20.573167399188737 -21.02068792115647 a50.4129994647553,50.4129994647553 0 0,0 0.6149526509073447,0.6123118487930397 l -20.931955850263403 20.663440221713312" fill="red" stroke="none" /><path d="M 114.94478906791727 85.2469230424477 l 21.44268221795874 -21.16761497939094 a51.13065788555072,51.13065788555072 0 0,0 0.6129244671506449,0.6316725409804639 l -21.803870948812495 20.795378242860362" fill="red" stroke="none" /><path d="M 115.4437574822437 85.77008943001954 l 40.82733809513464 -37.61839504227429 a76.51590025831374,76.51590025831374 0 0,0 0.8841461805556642,0.9762962954179218 l -41.46882791630634 36.91004595958682" fill="red" stroke="none" /><path d="M 116.60985879189232 87.15038557335679 l 25.125547199876344 -19.437467700473693 a52.766464592399515,52.766464592399515 0 0,0 0.5495854931271519,0.7231900872679511 l -25.456408633227607 19.002092837324707" fill="red" stroke="none" /><path d="M 117.04232023915458 87.72973835380427 l 24.348098115523914 -17.53033215385373 a51.002373693886575,51.002373693886575 0 0,0 0.506835797617169,0.7168832921242948 l -24.646246532944964 17.108622361397643" fill="red" stroke="none" /><path d="M 117.2510076193507 88.02491185347247 l 21.104191653479017 -14.649843121519298 a46.69055874892369,46.69055874892369 0 0,0 0.4526216878827398,0.6641664763851287 l -21.35323780703049 14.284398621863762" fill="red" stroke="none" /><path d="M 117.65298651832404 88.62581576622439 l 52.95895955497212 -34.12255270132683 a84.0,84.0 0 0,0 0.7726896150161773,1.2222094091431752 l -53.538476766234254 33.20589564446945" fill="red" stroke="none" /><line stroke="#e1ed5e" stroke-width="0.3" x1="172.23445277983987" x2="176.4835382374775" y1="55.19839476539836" y2="52.563006222186495" /><path d="M 173.08426987136738 54.67131705675599 a86.0,86.0 0 0,1 12.851231095245387,41.99856678651699" fill="none" id="id39" stroke="none" /><text fill="#e1ed5e" style="font-size:6.75px; font-family:Arial;" text-anchor="middle"><textPath startOffset="22.20632615414155" xlink:href="#id39">March</textPath></text><path d="M 118.03404312379186 89.2402003453031 l 23.356417164329162 -13.93533150689643 a48.197714737846454,48.197714737846454 0 0,0 0.4189536446682283,0.7161275845572462 l -23.592830483467715 13.531224509985288" fill="red" stroke="none" /><line stroke="#e1ed5e" stroke-width="0.3" x1="184.98032266829074" x2="189.97916517819016" y1="98.17113171792111" y2="98.06355123074" /><path d="M 185.9800911702706 98.14961562048488 a86.0,86.0 0 0,1 -9.607161424134198,41.387399972396054" fill="none" id="id40" stroke="none" /><text fill="#e1ed5e" style="font-size:6.75px; font-family:Arial;" text-anchor="middle"><textPath startOffset="21.466115282336823" xlink:href="#id40">April</textPath></text><line stroke="#e1ed5e" stroke-width="0.3" x1="174.80103733775053" x2="179.2010983576182" y1="140.37084112569926" y2="142.7455964860345" /><path d="M 175.68104954172406 140.8457921977663 a86.0,86.0 0 0,1 -30.038265399797805,32.042727171017184" fill="none" id="id41" stroke="none" /><text fill="#e1ed5e" style="font-size:6.75px; font-family:Arial;" text-anchor="middle"><textPath startOffset="22.206326154141568" xlink:href="#id41">May</textPath></text><line stroke="#e1ed5e" stroke-width="0.3" x1="143.8653032363475" x2="146.44561519142675" y1="172.8068346515853" y2="177.08958963109032" /><path d="M 144.38136562736335 173.6633856474863 a86.0,86.0 0 0,1 -40.68145358897372,12.25698825130547" fill="none" id="id42" stroke="none" /><text fill="#e1ed5e" style="font-size:6.75px; font-family:Arial;" text-anchor="middle"><textPath startOffset="21.466115282336833" xlink:href="#id42">June</textPath></text><line stroke="#e1ed5e" stroke-width="0.3" x1="102.19456741930631" x2="102.32365962044197" y1="184.97166512339345" y2="189.96999836594603" /><path d="M 102.22038585953345 185.97133177190398 a86.0,86.0 0 0,1 -42.740103519485714,-10.115201625700543" fill="none" id="id43" stroke="none" /><text fill="#e1ed5e" style="font-size:6.75px; font-family:Arial;" text-anchor="middle"><textPath startOffset="22.20632615414155" xlink:href="#id43">July</textPath></text><line stroke="#e1ed5e" stroke-width="0.3" x1="58.666819895761336" x2="56.23545636021788" y1="174.27360380694188" y2="178.64263932499728" /><path d="M 58.180547188652646 175.14741091055294 a86.0,86.0 0 0,1 -31.652253787137756,-30.449443065178592" fill="none" id="id44" stroke="none" /><text fill="#e1ed5e" style="font-size:6.75px; font-family:Arial;" text-anchor="middle"><textPath startOffset="22.20632615414155" xlink:href="#id44">August</textPath></text><line stroke="#e1ed5e" stroke-width="0.3" x1="26.63291911575756" x2="22.317208475507996" y1="142.92168965132927" y2="145.44649492493687" /><path d="M 25.769776987707644 143.4266507060508 a86.0,86.0 0 0,1 -11.730757126820373,-40.83630448921669" fill="none" id="id45" stroke="none" /><text fill="#e1ed5e" style="font-size:6.75px; font-family:Arial;" text-anchor="middle"><textPath startOffset="21.46611528233685" xlink:href="#id45">September</textPath></text><line stroke="#e1ed5e" stroke-width="0.3" x1="15.007084014347285" x2="10.007500721073583" y1="101.09737516637583" y2="101.16192664675087" /><path d="M 14.007167355692545 101.11028546245083 a86.0,86.0 0 0,1 10.666146001902534,-42.60595125391555" fill="none" id="id46" stroke="none" /><text fill="#e1ed5e" style="font-size:6.75px; font-family:Arial;" text-anchor="middle"><textPath startOffset="22.20632615414155" xlink:href="#id46">October</textPath></text><line stroke="#e1ed5e" stroke-width="0.3" x1="26.266209847984243" x2="21.928928074336255" y1="57.711370442889674" y2="55.22380399835377" /><path d="M 25.398753493254645 57.213857153982495 a86.0,86.0 0 0,1 29.58750427330803,-30.492523968695096" fill="none" id="id47" stroke="none" /><text fill="#e1ed5e" style="font-size:6.75px; font-family:Arial;" text-anchor="middle"><textPath startOffset="21.46611528233685" xlink:href="#id47">November</textPath></text><line stroke="#e1ed5e" stroke-width="0.3" x1="56.762969772571076" x2="54.21961505331055" y1="26.818313649435495" y2="22.513508569990535" /><path d="M 56.25429882871897 25.957352633546506 a86.0,86.0 0 0,1 42.265352541879196,-11.944610805530505" fill="none" id="id48" stroke="none" /><text fill="#e1ed5e" style="font-size:6.75px; font-family:Arial;" text-anchor="middle"><textPath startOffset="22.20632615414155" xlink:href="#id48">December</textPath></text></svg>