<?xml version="1.0" encoding="utf-8" ?>
<svg baseProfile="full" height="200mm" version="1.1" viewBox="0,0,200,200" width="200mm" xmlns="http://www.w3.org/2000/svg" xmlns:ev="http://www.w3.org/2001/xml-events" xmlns:xlink="http://www.w3.org/1999/xlink"><defs /><rect fill="#1a1a1a" height="200" width="200" x="0" y="0" /><rect fill="#1a1a1a" height="200" width="180" x="10" y="0" /><text alignment-baseline="middle" fill="#e1ed5e" style="dominant-baseline: central; font-size:9.0px; font-family:Arial;" text-anchor="middle" x="100.0" y="100.0">2026</text><line stroke="#e1ed5e" stroke-width="0.3" x1="100.0" x2="100.0" y1="15.0" y2="10.0" /><path d="M 100.0 14.0 a86.0,86.0 0 0,1 42.46469731375804,11.215312516191453" fill="none" id="id37" stroke="none" /><text fill="#e1ed5e" style="font-size:6.75px; font-family:Arial;" text-anchor="middle"><textPath startOffset="22.20632615414155" xlink:href="#id37">January</textPath></text><path d="M 100.72285384407766 79.0124445844662 l 0.8225967432694575 -23.883520680496737 a44.897682429427185,44.897682429427185 0 0,0 0.7721528387552408,0.03325052550344319 l -1.23359041441403 23.865822428469098" fill="#e4ff1a" stroke="none" /><path d="M 101.08401301168833 79.027996857942 l 2.353820627962525 -45.53850652455455 a66.59929876692753,66.59929876692753 0 0,0 1.1443597388465092,0.0690309045581123 l -3.137342415648646 45.49124235061613" fill="#36ff73" stroke="none" /><path d="M 101.80526077348638 79.07773832637324 l 2.0560251294934146 -23.82852183938966 a44.91705860642939,44.91705860642939 0 0,0 0.7697390836889919,0.07309600094545489 l -2.4658893402726507 23.789600293929027" fill="#e4ff1a" stroke="none" /><path d="M 102.52436894288641 79.15227682838746 l 0.4162410165594415 -3.437563082985653 a24.462671877809427,24.462671877809427 0 0,0 0.4175955985495234,0.054215893765655596 l -0.475351343616811 3.429888866055861" fill="#ff0000" stroke="none" /><path d="M 103.2404852339499 79.25152402106235 l 2.8222037887939324 -18.07026518929139 a39.28932251989666,39.28932251989666 0 0,0 0.6673025644493957,0.11011064080315625 l -3.1328355593822033 18.01900828554861" fill="#ffd213" stroke="none" /><path d="M 103.95276090670814 79.375362276772 l 2.9390128269824034 -15.335123031995765 a36.61421771346916,36.61421771346916 0 0,0 0.6179670785112978,0.12395838241692668 l -3.2025463149608266 15.28226069350163" fill="#ffaf10" stroke="none" /><path d="M 106.40334571778207 80.00007090966166 l 7.800288387313259 -24.363078538337987 a46.5813231634034,46.5813231634034 0 0,0 0.7615318287939791,0.2510650708544097 l -8.218503038349654 24.22519974322434" fill="#d0ff1d" stroke="none" /><path d="M 106.74666289553966 80.11325718540242 l 7.014113481503783 -20.67509123233139 a42.83248005602294,42.83248005602294 0 0,0 0.6961664882724548,0.24287881817093573 l -7.368961973839511 20.551291560988247" fill="#feff18" stroke="none" /><path d="M 107.4271985657038 80.35727306442388 l 7.7193074436274065 -20.415267870593805 a42.82592196534527,42.82592196534527 0 0,0 0.6872884131777097,0.2666572266468089 l -8.069579021804783 20.27936794005645" fill="#feff18" stroke="none" /><path d="M 108.76106565485865 80.91482961587045 l 8.814873526554797 -19.20238585080727 a42.1289757833275,42.1289757833275 0 0,0 0.6564532767588735,0.3082136155157341 l -9.144105014613269 19.047807252651534" fill="#fff717" stroke="none" /><path d="M 109.73455568895987 81.39251694778311 l 11.645981680861414 -22.261150244260584 a46.12344919608975,46.12344919608975 0 0,0 0.7003185832082383,0.374085933581412 l -12.027445310597964 22.057385584177418" fill="#d5ff1c" stroke="none" /><line stroke="#e1ed5e" stroke-width="0.3" x1="143.23703022742887" x2="145.7803849466894" y1="26.81831364943548" y2="22.513508569990506" /><path d="M 143.74570117128098 25.957352633546492 a86.0,86.0 0 0,1 28.547481713284135,27.462654790039103" fill="none" id="id38" stroke="none" /><text fill="#e1ed5e" style="font-size:6.75px; font-family:Arial;" text-anchor="middle"><textPath startOffset="19.985693538727396" xlink:href="#id38">February</textPath></text><path d="M 110.99172775467656 82.1063720568725 l 7.963804302880348 -12.964417822938707 a36.215068467223745,36.215068467223745 0 0,0 0.528362065423073,0.33086027689589925 l -8.185785520675685 12.825413204719862" fill="#ffa90f" stroke="none" /><path d="M 111.2981086023043 82.29822771554956 l 13.959185198558245 -21.871122535585442 a46.94619148110645,46.94619148110645 0 0,0 0.6774401920295419,0.4406259451208992 l -14.333592416372069 21.627597666305014" fill="#cbff1d" stroke="none" /><path d="M 112.77801427241765 83.33499621200491 l 19.74092016738615 -25.745980741165216 a53.44317267746118,53.44317267746118 0 0,0 0.7252173505747361,0.5660436453305855 l -20.18117007312032 25.402358706611405" fill="#80ff25" stroke="none" /><path d="M 113.06298171725822 83.55741782278167 l 9.834785669482752 -12.379200634733824 a36.81036424373764,36.81036424373764 0 0,0 0.49272706126275356,0.3984176833375268 l -10.046416129309998 12.208076854132166" fill="#ffb110" stroke="none" /><path d="M 113.34407831869373 83.78471172551755 l 18.971849366104124 -23.053971898566488 a50.85660209518221,50.85660209518221 0 0,0 0.6711678079309005,0.5620837373892786 l -19.36587471099414 22.72398700378339" fill="#9dff22" stroke="none" /><path d="M 114.16331599549186 84.49514656593476 l 20.150668143523163 -22.059322567064147 a50.87746874733843,50.87746874733843 0 0,0 0.6415215531794899,0.5962243681357521 l -20.5273975804975 21.709193612853756" fill="#9dff22" stroke="none" /><path d="M 114.68862486808459 84.99185889309783 l 16.732113376622518 -17.09608086722023 a44.921530031891436,44.921530031891436 0 0,0 0.5479660855180505,0.5456129450037874 l -17.02391526230789 16.805532071566326" fill="#e4ff1a" stroke="none" /><path d="M 114.94478906791727 85.2469230424477 l 17.43928793307351 -17.215576331811157 a45.505200102204014,45.505200102204014 0 0,0 0.5454897644316993,0.5621751521508723 l -17.733041961208315 16.912836984110168" fill="#ddff1b" stroke="none" /><path d="M 115.4437574822437 85.77008943001954 l 33.20478741160831 -30.59496083810257 a66.15096384059959,66.15096384059959 0 0,0 0.7643786693000078,0.8440460181200717 l -33.72650972152435 30.01886203271295" fill="#36ff6e" stroke="none" /><path d="M 116.60985879189232 87.15038557335679 l 20.434554205522545 -15.808451222323155 a46.83559822467848,46.83559822467848 0 0,0 0.48781296122542755,0.6419046761800811 l -20.703643106972088 15.454361770262041" fill="#cdff1d" stroke="none" /><path d="M 117.04232023915458 87.72973835380427 l 19.802256515452267 -14.257381930392421 a45.40086684142291,45.40086684142291 0 0,0 0.45117085522711,0.6381491787406214 l -20.044739990483258 13.914406251320008" fill="#deff1b" stroke="none" /><path d="M 117.2510076193507 88.02491185347247 l 17.163994275470976 -11.914686314595407 a41.89407689905461,41.89407689905461 0 0,0 0.40612424238286743,0.5959372125974854 l -17.366542983522578 11.617471078727515" fill="#fff417" stroke="none" /><path d="M 117.65298651832404 88.62581576622439 l 43.07140939400039 -27.75179968257546 a72.2377662745692,72.2377662745692 0 0,0 0.6644925215753031,1.0510675909079048 l -43.54272951182165 27.00628444395335" fill="#3effb4" stroke="none" /><line stroke="#e1ed5e" stroke-width="0.3" x1="172.23445277983987" x2="176.4835382374775" y1="55.19839476539836" y2="52.563006222186495" /><path d="M 173.08426987136738 54.67131705675599 a86.0,86.0 0 0,1 12.851231095245387,41.99856678651699" fill="none" id="id39" stroke="none" /><text fill="#e1ed5e" style="font-size:6.75px; font-family:Arial;" text-anchor="middle"><textPath startOffset="22.20632615414155" xlink:href="#id39">March</textPath></text><path d="M 118.03404312379186 89.2402003453031 l 18.99572450281323 -11.33357553506348 a43.11984366571718,43.11984366571718 0 0,0 0.374814776168029,0.6406799504659637 l -19.187998953451583 11.00491617224362" fill="#fbff18" stroke="none" /><path d="M 118.3937258080291 89.86733742301442 l 19.81923912298641 -10.917943686980037 a43.627499503174946,43.627499503174946 0 0,0 0.3566899198116947,0.6608922496006504 l -20.00423714201657 10.575170454046926" fill="#f4ff19" stroke="none" /><path d="M 118.56541770881063 90.18545643968196 l 22.96954569487692 -12.142770516609485 a46.981664789772026,46.981664789772026 0 0,0 0.3718052144044579,0.7182093310065487 l -23.175160342441494 11.74558846334259" fill="#cbff1d" stroke="none" /><path d="M 119.04729006885535 91.15688171328212 l 57.14187020656606 -26.529354860153646 a84.0,84.0 0 0,0 0.5975907321466121,1.3167119646317489 l -57.59006325567602 25.541820886679833" fill="#4dd2ff" stroke="none" /><path d="M 119.47837535516314 92.15188598940014 l 22.166096594231878 -8.931035061678731 a44.897682429427185,44.897682429427185 0 0,0 0.28265539107301524,0.7193271395835159 l -22.31654553518659 8.548158917199432" fill="#e4ff1a" stroke="none" /><path d="M 119.61058180528143 92.48833698450437 l 16.901927143747184 -6.474136375805781 a39.09943598527505,39.09943598527505 0 0,0 0.23533282384348578,0.6305749677816835 l -17.010864556092294 6.182238270994763" fill="#ffd013" stroke="none" /><path d="M 119.97218684219823 93.5106431181261 l 24.33325316310824 -7.906353226115536 a46.58549649383464,46.58549649383464 0 0,0 0.24123415617333216,0.7647781982472441 l -24.465742803049775 7.486324861441873" fill="#d0ff1d" stroke="none" /><path d="M 120.18372546131832 94.20196356495316 l 20.20339901151199 -5.803687917031589 a42.02046919211515,42.02046919211515 0 0,0 0.1937208249907293,0.6969168783164702 l -20.300306607069082 5.455059735296167" fill="#fff617" stroke="none" /><line stroke="#e1ed5e" stroke-width="0.3" x1="184.98032266829074" x2="189.97916517819016" y1="98.17113171792111" y2="98.06355123074" /><path d="M 185.9800911702706 98.14961562048488 a86.0,86.0 0 0,1 -9.607161424134198,41.387399972396054" fill="none" id="id40" stroke="none" /><text fill="#e1ed5e" style="font-size:6.75px; font-family:Arial;" text-anchor="middle"><textPath startOffset="21.466115282336823" xlink:href="#id40">April</textPath></text><line stroke="#e1ed5e" stroke-width="0.3" x1="174.80103733775053" x2="179.2010983576182" y1="140.37084112569926" y2="142.7455964860345" /><path d="M 175.68104954172406 140.8457921977663 a86.0,86.0 0 0,1 -30.038265399797805,32.042727171017184" fill="none" id="id41" stroke="none" /><text fill="#e1ed5e" style="font-size:6.75px; font-family:Arial;" text-anchor="middle"><textPath startOffset="22.206326154141568" xlink:href="#id41">May</textPath></text><line stroke="#e1ed5e" stroke-width="0.3" x1="143.8653032363475" x2="146.44561519142675" y1="172.8068346515853" y2="177.08958963109032" /><path d="M 144.38136562736335 173.6633856474863 a86.0,86.0 0 0,1 -40.68145358897372,12.25698825130547" fill="none" id="id42" stroke="none" /><text fill="#e1ed5e" style="font-size:6.75px; font-family:Arial;" text-anchor="middle"><textPath startOffset="21.466115282336833" xlink:href="#id42">June</textPath></text><line stroke="#e1ed5e" stroke-width="0.3" x1="102.19456741930631" x2="102.32365962044197" y1="184.97166512339345" y2="189.96999836594603" /><path d="M 102.22038585953345 185.97133177190398 a86.0,86.0 0 0,1 -42.740103519485714,-10.115201625700543" fill="none" id="id43" stroke="none" /><text fill="#e1ed5e" style="font-size:6.75px; font-family:Arial;" text-anchor="middle"><textPath startOffset="22.20632615414155" xlink:href="#id43">July</textPath></text><line stroke="#e1ed5e" stroke-width="0.3" x1="58.666819895761336" x2="56.23545636021788" y1="174.27360380694188" y2="178.64263932499728" /><path d="M 58.180547188652646 175.14741091055294 a86.0,86.0 0 0,1 -31.652253787137756,-30.449443065178592" fill="none" id="id44" stroke="none" /><text fill="#e1ed5e" style="font-size:6.75px; font-family:Arial;" text-anchor="middle"><textPath startOffset="22.20632615414155" xlink:href="#id44">August</textPath></text><line stroke="#e1ed5e" stroke-width="0.3" x1="26.63291911575756" x2="22.317208475507996" y1="142.92168965132927" y2="145.44649492493687" /><path d="M 25.769776987707644 143.4266507060508 a86.0,86.0 0 0,1 -11.730757126820373,-40.83630448921669" fill="none" id="id45" stroke="none" /><text fill="#e1ed5e" style="font-size:6.75px; font-family:Arial;" text-anchor="middle"><textPath startOffset="21.46611528233685" xlink:href="#id45">September</textPath></text><line stroke="#e1ed5e" stroke-width="0.3" x1="15.007084014347285" x2="10.007500721073583" y1="101.09737516637583" y2="101.16192664675087" /><path d="M 14.007167355692545 101.11028546245083 a86.0,86.0 0 0,1 10.666146001902534,-42.60595125391555" fill="none" id="id46" stroke="none" /><text fill="#e1ed5e" style="font-size:6.75px; font-family:Arial;" text-anchor="middle"><textPath startOffset="22.20632615414155" xlink:href="#id46">October</textPath></text><line stroke="#e1ed5e" stroke-width="0.3" x1="26.266209847984243" x2="21.928928074336255" y1="57.711370442889674" y2="55.22380399835377" /><path d="M 25.398753493254645 57.213857153982495 a86.0,86.0 0 0,1 29.58750427330803,-30.492523968695096" fill="none" id="id47" stroke="none" /><text fill="#e1ed5e" style="font-size:6.75px; font-family:Arial;" text-anchor="middle"><textPath startOffset="21.46611528233685" xlink:href="#id47">November</textPath></text><line stroke="#e1ed5e" stroke-width="0.3" x1="56.762969772571076" x2="54.21961505331055" y1="26.818313649435495" y2="22.513508569990535" /><path d="M 56.25429882871897 25.957352633546506 a86.0,86.0 0 0,1 42.265352541879196,-11.944610805530505" fill="none" id="id48" stroke="none" /><text fill="#e1ed5e" style="font-size:6.75px; font-family:Arial;" text-anchor="middle"><textPath startOffset="22.20632615414155" xlink:href="#id48">December</textPath></text></svg>