<?xml version="1.0" encoding="utf-8" ?>
<svg baseProfile="full" height="200mm" version="1.1" viewBox="0,0,200,200" width="200mm" xmlns="http://www.w3.org/2000/svg" xmlns:ev="http://www.w3.org/2001/xml-events" xmlns:xlink="http://www.w3.org/1999/xlink"><defs /><rect fill="#1a1a1a" height="200" width="200" x="0" y="0" /><text alignment-baseline="middle" fill="#e1ed5e" style="dominant-baseline: central; font-size:9.0px; font-family:Arial;" text-anchor="middle" x="100.0" y="100.0">2025</text><line stroke="#e1ed5e" stroke-width="0.3" x1="100.0" x2="100.0" y1="15.0" y2="10.0" /><path d="M 100.0 14.0 a86.0,86.0 0 0,1 42.46469731375804,11.215312516191453" fill="none" id="id25" stroke="none" /><text fill="#e1ed5e" style="font-size:6.75px; font-family:Arial;" text-anchor="middle"><textPath startOffset="22.20632615414155" xlink:href="#id25">January</textPath></text><path d="M 101.44485096284872 79.0497635885617 l 2.6997640017343416 -39.14638640646243 a60.23937173744156,60.23937173744156 0 0,0 1.033850502896326,0.08024669668031181 l -3.373204693993009 39.094114447593654" fill="#98ff23" stroke="none" /><path d="M 102.16513564639614 79.11191278185805 l 3.133103445946856 -30.226530218248186 a51.38847587882082,51.38847587882082 0 0,0 0.8790691234076081,0.09877365864036337 l -3.6529392728641894 30.168120606137222" fill="#ffd113" stroke="none" /><path d="M 102.88285421437855 79.19881850522331 l 4.02315473049371 -29.02899886965279 a50.30645917472455,50.30645917472455 0 0,0 0.8567214421752831,0.1262584705161435 l -4.522245153097648 28.955445914975677" fill="#ffbd11" stroke="none" /><path d="M 104.307194497241 79.44645832069477 l 6.662371695471708 -31.792233764603804 a53.48281583163376,53.48281583163376 0 0,0 0.8994212163665879,0.1965786412393621 l -7.208635635991824 31.67284162526857" fill="#fff617" stroke="none" /><path d="M 106.0581310904928 79.89281104454417 l 15.936957271151394 -52.89542376013531 a76.24411698838884,76.24411698838884 0 0,0 1.2533611632927166,0.3894254144845671 l -16.84510380715483 52.61325821076822" fill="#3fffc0" stroke="none" /><path d="M 107.08798089147638 80.2323363322302 l 10.814470109724587 -30.16046616763054 a53.04070041685907,53.04070041685907 0 0,0 0.8567782397524032,0.31555865634981345 l -11.332030675249566 29.9698442434744" fill="#ffee16" stroke="none" /><path d="M 107.76421540070413 80.48803036053334 l 9.446149939355585 -23.7387786549354 a46.54915577283923,46.54915577283923 0 0,0 0.7419406330577201,0.30265621324409486 l -9.853374442001694 23.572661555507725" fill="#ff760a" stroke="none" /><path d="M 108.76106565485865 80.91482961587045 l 24.502361040005844 -53.376124969755644 a79.73139206013909,79.73139206013909 0 0,0 1.2423737488329403,0.5833111334902953 l -25.41751300013838 52.94644885362535" fill="#45fff2" stroke="none" /><path d="M 109.41281617654863 81.2277094730956 l 14.289779004289759 -28.498578746509136 a52.880507752581714,52.880507752581714 0 0,0 0.8101785133511749,0.4150049020426538 l -14.77821800522969 28.24838131915398" fill="#ffec16" stroke="none" /><path d="M 110.36928655335952 81.73862282372117 l 15.528757482351537 -27.347734678265613 a52.449020668035125,52.449020668035125 0 0,0 0.7812488116169007,0.4525497378100634 l -15.997203026433766 27.0763807830655" fill="#ffe415" stroke="none" /><line stroke="#e1ed5e" stroke-width="0.3" x1="143.23703022742887" x2="145.7803849466894" y1="26.81831364943548" y2="22.513508569990506" /><path d="M 143.74570117128098 25.957352633546492 a86.0,86.0 0 0,1 28.547481713284135,27.462654790039103" fill="none" id="id26" stroke="none" /><text fill="#e1ed5e" style="font-size:6.75px; font-family:Arial;" text-anchor="middle"><textPath startOffset="19.985693538727396" xlink:href="#id26">February</textPath></text><path d="M 110.99172775467656 82.1063720568725 l 32.97518326402967 -53.68088382938249 a84.0,84.0 0 0,0 1.225523390510947,0.7674226347082231 l -33.894325806912875 53.10531685335132" fill="#4dd2ff" stroke="none" /><path d="M 112.19680574252982 82.90503203632743 l 20.16864339999927 -28.268246627187015 a55.72560933910022,55.72560933910022 0 0,0 0.7760578785837577,0.5638390529847174 l -20.652246594936816 27.916888339385622" fill="#e1ff1b" stroke="none" /><path d="M 113.06298171725822 83.55741782278167 l 39.17781048135004 -49.31373114547165 a83.98209994594053,83.98209994594053 0 0,0 1.124146803629577,0.9089818693650834 l -40.020860683544115 48.63204317884244" fill="#4dd2ff" stroke="none" /><path d="M 117.04232023915458 87.72973835380427 l 15.958925946161035 -11.490231036837494 a40.66501275450783,40.66501275450783 0 0,0 0.404108332256187,0.5715825775619211 l -16.154346898221103 11.21382195894378" fill="#ff0000" stroke="none" /><path d="M 117.65298651832404 88.62581576622439 l 23.893440048342637 -15.395037480282575 a49.42364607792338,49.42364607792338 0 0,0 0.4546325959600764,0.7191195865547636 l -24.15490024054867 14.981470246013606" fill="#ffad10" stroke="none" /><line stroke="#e1ed5e" stroke-width="0.3" x1="172.23445277983987" x2="176.4835382374775" y1="55.19839476539836" y2="52.563006222186495" /><path d="M 173.08426987136738 54.67131705675599 a86.0,86.0 0 0,1 12.851231095245387,41.99856678651699" fill="none" id="id27" stroke="none" /><text fill="#e1ed5e" style="font-size:6.75px; font-family:Arial;" text-anchor="middle"><textPath startOffset="22.20632615414155" xlink:href="#id27">March</textPath></text><path d="M 118.03404312379186 89.2402003453031 l 33.876048143269756 -20.21174556434183 a60.447449810638226,60.447449810638226 0 0,0 0.5254331983748788,0.8981356576963695 l -34.21894101611496 19.625630494291563" fill="#94ff23" stroke="none" /><path d="M 118.3937258080291 89.86733742301442 l 28.56695320035699 -15.736849654755819 a53.61470913878851,53.61470913878851 0 0,0 0.4383433962803688,0.812183740483221 l -28.833604695855826 15.24278493094014" fill="#fff917" stroke="none" /><path d="M 118.89224826269711 90.83032412892265 l 27.539293661073277 -13.366667274274185 a51.61177043837849,51.61177043837849 0 0,0 0.38104676703765983,0.8025816704224691 l -27.765298621952695 12.890643188211177" fill="#ffd513" stroke="none" /><path d="M 119.196687751892 91.48605970444005 l 43.79392903947551 -19.42308495971315 a68.90787461437682,68.90787461437682 0 0,0 0.4715572260515073,1.0884190930622815 l -44.12177697536969 18.666366722064268" fill="#32ff4b" stroke="none" /><path d="M 119.47837535516314 92.15188598940014 l 33.26084016422731 -13.40126478402636 a56.85913253610385,56.85913253610385 0 0,0 0.3579592414001999,0.9109672248826011 l -33.48659295550921 12.826748554247974" fill="#ceff1d" stroke="none" /><path d="M 119.7369772167798 92.82701384747503 l 29.6297227273327 -10.768294885886677 a52.5258091672209,52.5258091672209 0 0,0 0.3015154510990639,0.8524247827643605 l -29.810691259241576 10.256672476695702" fill="#ffe515" stroke="none" /><line stroke="#e1ed5e" stroke-width="0.3" x1="184.98032266829074" x2="189.97916517819016" y1="98.17113171792111" y2="98.06355123074" /><path d="M 185.9800911702706 98.14961562048488 a86.0,86.0 0 0,1 -9.607161424134198,41.387399972396054" fill="none" id="id28" stroke="none" /><text fill="#e1ed5e" style="font-size:6.75px; font-family:Arial;" text-anchor="middle"><textPath startOffset="21.466115282336823" xlink:href="#id28">April</textPath></text><line stroke="#e1ed5e" stroke-width="0.3" x1="174.80103733775053" x2="179.2010983576182" y1="140.37084112569926" y2="142.7455964860345" /><path d="M 175.68104954172406 140.8457921977663 a86.0,86.0 0 0,1 -30.038265399797805,32.042727171017184" fill="none" id="id29" stroke="none" /><text fill="#e1ed5e" style="font-size:6.75px; font-family:Arial;" text-anchor="middle"><textPath startOffset="22.206326154141568" xlink:href="#id29">May</textPath></text><line stroke="#e1ed5e" stroke-width="0.3" x1="143.8653032363475" x2="146.44561519142675" y1="172.8068346515853" y2="177.08958963109032" /><path d="M 144.38136562736335 173.6633856474863 a86.0,86.0 0 0,1 -40.68145358897372,12.25698825130547" fill="none" id="id30" stroke="none" /><text fill="#e1ed5e" style="font-size:6.75px; font-family:Arial;" text-anchor="middle"><textPath startOffset="21.466115282336833" xlink:href="#id30">June</textPath></text><line stroke="#e1ed5e" stroke-width="0.3" x1="102.19456741930631" x2="102.32365962044197" y1="184.97166512339345" y2="189.96999836594603" /><path d="M 102.22038585953345 185.97133177190398 a86.0,86.0 0 0,1 -42.740103519485714,-10.115201625700543" fill="none" id="id31" stroke="none" /><text fill="#e1ed5e" style="font-size:6.75px; font-family:Arial;" text-anchor="middle"><textPath startOffset="22.20632615414155" xlink:href="#id31">July</textPath></text><line stroke="#e1ed5e" stroke-width="0.3" x1="58.666819895761336" x2="56.23545636021788" y1="174.27360380694188" y2="178.64263932499728" /><path d="M 58.180547188652646 175.14741091055294 a86.0,86.0 0 0,1 -31.652253787137756,-30.449443065178592" fill="none" id="id32" stroke="none" /><text fill="#e1ed5e" style="font-size:6.75px; font-family:Arial;" text-anchor="middle"><textPath startOffset="22.20632615414155" xlink:href="#id32">August</textPath></text><line stroke="#e1ed5e" stroke-width="0.3" x1="26.63291911575756" x2="22.317208475507996" y1="142.92168965132927" y2="145.44649492493687" /><path d="M 25.769776987707644 143.4266507060508 a86.0,86.0 0 0,1 -11.730757126820373,-40.83630448921669" fill="none" id="id33" stroke="none" /><text fill="#e1ed5e" style="font-size:6.75px; font-family:Arial;" text-anchor="middle"><textPath startOffset="21.46611528233685" xlink:href="#id33">September</textPath></text><line stroke="#e1ed5e" stroke-width="0.3" x1="15.007084014347285" x2="10.007500721073583" y1="101.09737516637583" y2="101.16192664675087" /><path d="M 14.007167355692545 101.11028546245083 a86.0,86.0 0 0,1 10.666146001902534,-42.60595125391555" fill="none" id="id34" stroke="none" /><text fill="#e1ed5e" style="font-size:6.75px; font-family:Arial;" text-anchor="middle"><textPath startOffset="22.20632615414155" xlink:href="#id34">October</textPath></text><line stroke="#e1ed5e" stroke-width="0.3" x1="26.266209847984243" x2="21.928928074336255" y1="57.711370442889674" y2="55.22380399835377" /><path d="M 25.398753493254645 57.213857153982495 a86.0,86.0 0 0,1 29.58750427330803,-30.492523968695096" fill="none" id="id35" stroke="none" /><text fill="#e1ed5e" style="font-size:6.75px; font-family:Arial;" text-anchor="middle"><textPath startOffset="21.46611528233685" xlink:href="#id35">November</textPath></text><line stroke="#e1ed5e" stroke-width="0.3" x1="56.762969772571076" x2="54.21961505331055" y1="26.818313649435495" y2="22.513508569990535" /><path d="M 56.25429882871897 25.957352633546506 a86.0,86.0 0 0,1 42.265352541879196,-11.944610805530505" fill="none" id="id36" stroke="none" /><text fill="#e1ed5e" style="font-size:6.75px; font-family:Arial;" text-anchor="middle"><textPath startOffset="22.20632615414155" xlink:href="#id36">December</textPath></text></svg>