<?xml version="1.0" encoding="utf-8" ?>
<svg baseProfile="full" height="200mm" version="1.1" viewBox="0,0,200,200" width="200mm" xmlns="http://www.w3.org/2000/svg" xmlns:ev="http://www.w3.org/2001/xml-events" xmlns:xlink="http://www.w3.org/1999/xlink"><defs /><rect fill="#1a1a1a" height="200" width="200" x="0" y="0" /><text alignment-baseline="middle" fill="#e1ed5e" style="dominant-baseline: central; font-size:9.0px; font-family:Arial;" text-anchor="middle" x="100.0" y="100.0">2024</text><line stroke="#e1ed5e" stroke-width="0.3" x1="100.0" x2="100.0" y1="15.0" y2="10.0" /><path d="M 100.0 14.0 a86.0,86.0 0 0,1 42.35913384403234,11.155469271406648" fill="none" id="id13" stroke="none" /><text fill="#e1ed5e" style="font-size:6.75px; font-family:Arial;" text-anchor="middle"><textPath startOffset="22.145653131862478" xlink:href="#id13">January</textPath></text><path d="M 100.0 79.0 l 0.0 -28.949522384680108 a49.94952238468011,49.94952238468011 0 0,0 0.857449972345556,0.007360176756192395 l -0.4969570474967012 28.94525660611835" fill="#a8ff21" stroke="none" /><path d="M 101.08105385017728 79.02784411241856 l 0.9886072788718534 -19.178717101556284 a40.20418011822858,40.20418011822858 0 0,0 0.6889381563537296,0.041444808701880935 l -1.3176897873580453 19.15892031502971" fill="#ffde14" stroke="none" /><path d="M 101.44090949804482 79.04949213459386 l 1.4013856114262726 -20.37583922827329 a41.42397380257704,41.42397380257704 0 0,0 0.7090028830602219,0.054881307196480565 l -1.7509574892617281 20.34878015408175" fill="#ffee16" stroke="none" /><path d="M 102.15924093988457 79.11130261209362 l 4.213162556697032 -40.75852586307809 a61.975702181419166,61.975702181419166 0 0,0 1.0573175745087466,0.11847463957712094 l -4.912216032806575 40.680195462994" fill="#31ff3b" stroke="none" /><path d="M 102.87502721639298 79.19773525538626 l 3.6172874090537697 -26.17288974220583 a47.421675299976,47.421675299976 0 0,0 0.8054343347393207,0.11837111055207811 l -4.066046849400772 26.10693755835487" fill="#c5ff1e" stroke="none" /><path d="M 103.58742460773223 79.30868818359171 l 4.770075070153946 -27.512525406526407 a48.92297746336635,48.92297746336635 0 0,0 0.8262514684533631,0.15057054143676177 l -5.241661272158362 27.426586691158278" fill="#b4ff20" stroke="none" /><path d="M 103.94208987418118 79.37332000966035 l 3.040711806940972 -15.910289056422553 a37.19824762595601,37.19824762595601 0 0,0 0.6261767270411993,0.12525288251027222 l -3.3133850195131282 15.85574677724942" fill="#ffb711" stroke="none" /><path d="M 104.9986988182912 79.60360301121754 l 8.555976828808728 -34.9113051957916 a56.94445673492392,56.94445673492392 0 0,0 0.9474329411113313,0.24083374872280466 l -9.154015063145453 34.75928621523353" fill="#5aff2a" stroke="none" /><path d="M 106.38641147887787 79.99465700312896 l 11.001075878455344 -34.460713502565085 a57.174085276471104,57.174085276471104 0 0,0 0.9324202001419212,0.3065050400051125 l -11.591018816245008 34.266787541157946" fill="#57ff2a" stroke="none" /><path d="M 107.06938296918511 80.22567764915836 l 12.077463884938284 -33.78281599432814 a56.87678623286403,56.87678623286403 0 0,0 0.9165581657262151,0.3365728541081156 l -12.655611202318624 33.5705122912113" fill="#5bff2a" stroke="none" /><path d="M 109.71004243097381 81.37971332152246 l 15.792596730249931 -30.28438656218616 a55.15479733408211,55.15479733408211 0 0,0 0.8357558749871704,0.4449929292938001 l -16.310141421023662 30.008823165169787" fill="#6dff28" stroke="none" /><path d="M 110.34350942703115 81.72400993836675 l 21.938277198764588 -38.76283372509654 a65.54037813994529,65.54037813994529 0 0,0 0.9743904625985085,0.5625645958770529 l -22.600460129223496 38.38052223194332" fill="#35ff67" stroke="none" /><line stroke="#e1ed5e" stroke-width="0.3" x1="143.13028292997686" x2="145.6673583964461" y1="26.7553504044142" y2="22.446841604673864" /><path d="M 143.63769802327073 25.89364864446614 a86.0,86.0 0 0,1 29.32050498858742,28.57503671076993" fill="none" id="id14" stroke="none" /><text fill="#e1ed5e" style="font-size:6.75px; font-family:Arial;" text-anchor="middle"><textPath startOffset="20.669276256404974" xlink:href="#id14">February</textPath></text><path d="M 110.96478420261332 82.08984904055464 l 9.37587524517638 -15.314787588616037 a38.95688601894936,38.95688601894936 0 0,0 0.5673530083450117,0.35407023845435776 l -9.637392382311104 15.151581553320133" fill="#ffce13" stroke="none" /><path d="M 111.5731344415666 82.4767994020092 l 15.725049161330299 -23.80972866586326 a49.53384569714159,49.53384569714159 0 0,0 0.7055122434688307,0.47470012341686313 l -16.13145769289613 23.536278868389278" fill="#adff20" stroke="none" /><path d="M 115.16444852881244 85.47280134310134 l 17.604097257540474 -16.8643269519332 a45.37846926684784,45.37846926684784 0 0,0 0.5340487596799933,0.5671412758919283 l -17.891001850956727 16.559644216096775" fill="#deff1b" stroke="none" /><path d="M 116.35404254752997 86.82634096563983 l 20.537288036683496 -16.543385484011427 a47.371647714435724,47.371647714435724 0 0,0 0.5046965633114916,0.6376676206081331 l -20.818251030636546 16.188397919488615" fill="#c6ff1e" stroke="none" /><path d="M 117.21940702142032 87.97951657250589 l 21.99113114962636 -15.351517459753332 a47.81937615898584,47.81937615898584 0 0,0 0.4640990304899941,0.6771343552524677 l -22.251419916931678 14.971748369430816" fill="#c1ff1e" stroke="none" /><path d="M 117.81537515405839 88.88188828441811 l 8.609788646335794 -5.373144892528613 a31.148849519560287,31.148849519560287 0 0,0 0.279200540473295,0.4560531001279183 l -8.70075715126449 5.2245546762761395" fill="#ff6309" stroke="none" /><line stroke="#e1ed5e" stroke-width="0.3" x1="172.87174338648825" x2="177.1583165268699" y1="56.24261187166439" y2="53.66864786411523" /><path d="M 173.72905801456457 55.72781907015455 a86.0,86.0 0 0,1 12.242430191666344,42.057860355516425" fill="none" id="id15" stroke="none" /><text fill="#e1ed5e" style="font-size:6.75px; font-family:Arial;" text-anchor="middle"><textPath startOffset="22.145653131862474" xlink:href="#id15">March</textPath></text><path d="M 118.36410011445183 89.81374322990088 l 28.450741112992887 -15.78114650161892 a53.53443183435209,53.53443183435209 0 0,0 0.4388667331421061,0.8074653583911596 l -28.717453195750334 15.290426309753158" fill="#7fff26" stroke="none" /><path d="M 118.70294669586156 90.45014215332178 l 33.273958983895035 -16.989920543521162 a58.360590821574164,58.360590821574164 0 0,0 0.44793167112550614,0.8961633997818992 l -33.56071056823228 16.41622528757551" fill="#4bff2c" stroke="none" /><path d="M 119.58574465831526 92.42381321644754 l 33.142614208898124 -12.820275160445718 a56.535789449362134,56.535789449362134 0 0,0 0.34236274687076884,0.90815786121592 l -33.357807639583335 12.24944901903564" fill="#5eff29" stroke="none" /><path d="M 119.83427380445688 93.10060997987247 l 42.25237268392663 -14.697568526894438 a65.73568506264532,65.73568506264532 0 0,0 0.36159190226967897,1.0689822083898686 l -42.498450007768675 13.970084644030408" fill="#35ff69" stroke="none" /><path d="M 120.35273937422433 94.82641323984039 l 30.047316446837122 -7.637910341669041 a52.00288535029834,52.00288535029834 0 0,0 0.21249982000946785,0.8670717813799996 l -30.174003793362882 7.120982735680947" fill="#90ff24" stroke="none" /><path d="M 120.51834098615036 95.52812308129327 l 27.682375404570667 -6.033244876388044 a49.332206969772784,49.332206969772784 0 0,0 0.17323189866843675,0.8289773457817298 l -27.78186501406347 5.557151079320909" fill="#afff20" stroke="none" /><path d="M 120.65975698304385 96.23510406497455 l 34.81819199170033 -6.3450344358878805 a56.39160854727442,56.39160854727442 0 0,0 0.16537559544239877,0.9538424876574538 l -34.92198240463496 5.746398915309833" fill="#60ff29" stroke="none" /><path d="M 120.82617615685814 97.30363454192243 l 37.94538541744114 -4.9127898353695665 a59.262093231351905,59.262093231351905 0 0,0 0.12196114444496843,1.0100132326788123 l -38.02412864814577 4.260682925767341" fill="#42ff2d" stroke="none" /><path d="M 120.9064616781168 98.02013634271609 l 16.94381841673043 -1.6045972204859604 a38.01962733960778,38.01962733960778 0 0,0 0.055954711783295585,0.6502785679527604 l -16.96886675121147 1.313497605157538" fill="#ffc212" stroke="none" /><path d="M 120.96210409425399 98.7389718711861 l 44.148003231426145 -2.6558342452395443 a65.22781528473004,65.22781528473004 0 0,0 0.05764402737642211,1.118278731376916 l -44.18708884825914 1.8975837204858976" fill="#35ff63" stroke="none" /><path d="M 120.98066250479742 99.09900007780936 l 3.919230704489964 -0.16830862986262632 a24.922842988178743,24.922842988178743 0 0,0 0.014687046805100986,0.4275973427568024 l -3.921542438291913 0.10100502254170397" fill="#ff0701" stroke="none" /><line stroke="#e1ed5e" stroke-width="0.3" x1="184.99686870605535" x2="189.99668451229388" y1="99.2704041080226" y2="99.22748670261217" /><path d="M 185.99683186730306 99.26182062694052 a86.0,86.0 0 0,1 -10.086455211305974,41.156179273409016" fill="none" id="id16" stroke="none" /><text fill="#e1ed5e" style="font-size:6.75px; font-family:Arial;" text-anchor="middle"><textPath startOffset="21.40746469413373" xlink:href="#id16">April</textPath></text><path d="M 120.99922638620191 100.18025310272382 l 29.523413261665592 0.2534229949970784 a50.52450090744101,50.52450090744101 0 0,0 -0.014889253800421009,0.8672243891052658 l -29.5147125762665 -0.7601943000714152" fill="#a1ff22" stroke="none" /><path d="M 120.98066250479742 100.90099992219065 l 62.94198751439227 2.702999766571932 a84.0,84.0 0 0,0 -0.07423364217370931,1.4401128264930774 l -62.886312282761985 -3.7830843864417396" fill="#4dd2ff" stroke="none" /><line stroke="#e1ed5e" stroke-width="0.3" x1="174.33088141563837" x2="178.70328620479359" y1="141.23008692659167" y2="143.65538615756765" /><path d="M 175.20536237346943 141.71514677278685 a86.0,86.0 0 0,1 -30.301960400862466,31.631185727798858" fill="none" id="id17" stroke="none" /><text fill="#e1ed5e" style="font-size:6.75px; font-family:Arial;" text-anchor="middle"><textPath startOffset="22.145653131862474" xlink:href="#id17">May</textPath></text><line stroke="#e1ed5e" stroke-width="0.3" x1="143.1302829299769" x2="145.66735839644613" y1="173.24464959558577" y2="177.55315839532614" /><path d="M 143.63769802327073 174.10635135553383 a86.0,86.0 0 0,1 -40.68552437913181,11.842963189579606" fill="none" id="id18" stroke="none" /><text fill="#e1ed5e" style="font-size:6.75px; font-family:Arial;" text-anchor="middle"><textPath startOffset="21.407464694133747" xlink:href="#id18">June</textPath></text><path d="M 110.02825361518725 118.45085714620011 l 8.24218460666492 15.164691339663962 a38.259822435866,38.259822435866 0 0,0 -0.5797477811958619,0.30868303906315986 l -7.980648009682503 -15.30394484644969" fill="#ffc512" stroke="none" /><path d="M 108.4095320186766 119.2426549942271 l 6.885913629524105 15.756317949524911 a38.19527149654191,38.19527149654191 0 0,0 -0.6030577296474234,0.25740948475725134 l -6.614420824706251 -15.872202083941566" fill="#ffc412" stroke="none" /><path d="M 107.407793817531 119.65005319985036 l 6.124895367288385 16.247012643077014 a38.36317260999657,38.36317260999657 0 0,0 -0.6182149422946712,0.22701708997981562 l -5.845091273339587 -16.34976058206555" fill="#ffc612" stroke="none" /><path d="M 105.69591212413111 120.21278271476187 l 4.665151420580103 16.554976611411952 a38.19973512532496,38.19973512532496 0 0,0 -0.632694207426488,0.17244361970026031 l -4.38027581221892 -16.632620725256356" fill="#ffc412" stroke="none" /><path d="M 104.9986988182912 120.39639698878246 l 4.099748698077588 16.7283737308302 a38.223426693481144,38.223426693481144 0 0,0 -0.6386367333630163,0.15071653015600267 l -3.8119798109746923 -16.79628640463243" fill="#ffc412" stroke="none" /><path d="M 104.29559338865022 120.5559693870025 l 3.523649389457031 16.86193790398974 a38.22617354196302,38.22617354196302 0 0,0 -0.6434803186565433,0.12871408544868412 l -3.2336725852695287 -16.919941386101286" fill="#ffc412" stroke="none" /><path d="M 103.94208987418118 120.62667999033965 l 8.188855257841503 42.84755098989 a64.62304409672831,64.62304409672831 0 0,0 -1.0914071025384728,0.19889073076597918 l -7.4521134217519736 -42.98180989458734" fill="#34ff5b" stroke="none" /><path d="M 102.875027216393 120.80226474461374 l 2.354841948385521 17.038463275313113 a38.20042183744543,38.20042183744543 0 0,0 -0.6503570485721276,0.08420174053937785 l -2.0620070779226185 -17.076376612052883" fill="#ffc412" stroke="none" /><path d="M 102.15924093988457 120.88869738790638 l 2.3075539365401965 22.323491091845067 a43.44243880904498,43.44243880904498 0 0,0 -0.7424528693421905,0.07031105865204366 l -1.9240015038129905 -22.359813906002294" fill="#f6ff19" stroke="none" /><path d="M 100.72087961077811 120.9876233191556 l 1.9695391337784265 57.34098292426387 a78.37479766517879,78.37479766517879 0 0,0 -1.345011123377609,0.03464271545529594 l -0.9849146963300737 -57.36634335706921" fill="#46fff5" stroke="none" /><line stroke="#e1ed5e" stroke-width="0.3" x1="101.45913802915013" x2="101.54496967792366" y1="184.9874750549273" y2="189.98673829345242" /><path d="M 101.47630435890484 185.9873277026323 a86.0,86.0 0 0,1 -42.54439059252881,-10.42667462771756" fill="none" id="id19" stroke="none" /><text fill="#e1ed5e" style="font-size:6.75px; font-family:Arial;" text-anchor="middle"><textPath startOffset="22.145653131862474" xlink:href="#id19">July</textPath></text><path d="M 97.48249496171623 120.84855314841334 l -2.076084459310974 17.192957524345964 a38.31784961004561,38.31784961004561 0 0,0 -0.6523562406211665,-0.08446057597534527 l 2.3709185218229343 -17.15478535217022" fill="#ffc612" stroke="none" /><path d="M 96.05791012581884 120.62667999033965 l -10.705022496903712 56.01320121573457 a78.02697797616128,78.02697797616128 0 0,0 -1.3134671875224544,-0.2627302232984754 l 11.664986169957126 -55.82118159577323" fill="#45fff1" stroke="none" /><path d="M 94.30408787586889 120.21278271476187 l -4.665058290773136 16.55464612658151 a38.19939176926473,38.19939176926473 0 0,0 -0.6296350949544497,-0.18327759974104732 l 4.948553398109193 -16.472124832537947" fill="#ffc412" stroke="none" /><path d="M 90.28995756902619 118.62028667847754 l -8.051297097856068 15.439423788453944 a38.41261588267033,38.41261588267033 0 0,0 -0.5820630470838308,-0.30991578774063294 l 8.31514896072646 -15.298937532990736" fill="#ffc712" stroke="none" /><line stroke="#e1ed5e" stroke-width="0.3" x1="58.13341422392154" x2="55.67067388415222" y1="173.97424548756322" y2="178.32567169271397" /><path d="M 57.64086615596768 174.84453072859336 a86.0,86.0 0 0,1 -31.369924170532247,-30.572349798747897" fill="none" id="id20" stroke="none" /><text fill="#e1ed5e" style="font-size:6.75px; font-family:Arial;" text-anchor="middle"><textPath startOffset="22.145653131862474" xlink:href="#id20">August</textPath></text><path d="M 89.34428304082925 118.09573695890944 l -7.239531838989261 12.294307775438005 a35.26747437092265,35.26747437092265 0 0,0 -0.5190486231906022,-0.3116737847476929 l 7.44951321873729 -12.168219990154393" fill="#ff9d0e" stroke="none" /><path d="M 88.72937992617639 117.7192867562869 l -1.888848379795818 2.969583382415932 a24.51939961740325,24.51939961740325 0 0,0 -0.35321288917602206,-0.22894832736683798 l 1.9395469012288498 -2.936721213345199" fill="#ff0100" stroke="none" /><path d="M 88.4268655584334 117.5232005979908 l -9.478423788239443 14.351541687577983 a38.199048413204494,38.199048413204494 0 0,0 -0.5440703415024595,-0.3660748068507244 l 9.723390417838907 -14.186717206670137" fill="#ffc412" stroke="none" /><path d="M 86.13680546590413 115.77377054828092 l -11.485228610432095 13.068081844335351 a38.39785157208025,38.39785157208025 0 0,0 -0.4913736005839605,-0.4393893036021562 l 11.707867237839427 -12.868997010849812" fill="#ffc712" stroke="none" /><path d="M 85.60350026404147 115.28858382429668 l -17.591641859466986 18.681714035231806 a46.660715161622605,46.660715161622605 0 0,0 -0.5784318088462784,-0.5541245882178605 l 17.90974615417858 -18.376977316708366" fill="#cfff1d" stroke="none" /><path d="M 84.83555147118756 114.52719865689866 l -19.724122315128245 18.895263000195317 a48.314317947711785,48.314317947711785 0 0,0 -0.5686000870375628,-0.6038335882063882 l 20.04557823590206 -18.553887952044438" fill="#bbff1f" stroke="none" /><path d="M 84.3458050057657 113.99807769240083 l -18.17863581809482 16.255448243571493 a45.38652082209251,45.38652082209251 0 0,0 -0.5143566571938563,-0.5852434567373537 l 18.455003539247265 -15.94099250902284" fill="#deff1b" stroke="none" /><path d="M 82.98947788004972 112.3143062007846 l -16.715429430666802 12.100681850642648 a41.63569922009124,41.63569922009124 0 0,0 -0.41414613948690254,-0.5825484101302928 l 16.920690668683665 -11.811956213802851" fill="#fff116" stroke="none" /><path d="M 82.576782715395 111.72311816256416 l -19.95461325247668 13.426354342360847 a45.05106195124344,45.05106195124344 0 0,0 -0.4262164290657329,-0.6453459970060739 l 20.182154120463142 -13.081828467015713" fill="#e2ff1b" stroke="none" /><line stroke="#e1ed5e" stroke-width="0.3" x1="26.387840678322732" x2="22.057713659400548" y1="142.50000000000003" y2="145.00000000000006" /><path d="M 25.521815274538298 143.00000000000003 a86.0,86.0 0 0,1 -11.493303480769221,-40.785679425670985" fill="none" id="id21" stroke="none" /><text fill="#e1ed5e" style="font-size:6.75px; font-family:Arial;" text-anchor="middle"><textPath startOffset="21.40746469413373" xlink:href="#id21">September</textPath></text><path d="M 81.81346652052679 110.50000000000001 l -2.9735507070638487 1.716780301172317 a24.43356060234463,24.43356060234463 0 0,0 -0.2065992922240267,-0.3650411533980218 l 3.0025833643092534 -1.6654823776751737" fill="#ff0000" stroke="none" /><path d="M 81.4637452351635 109.86951160357371 l -23.569389979755154 12.54937261304951 a47.702114092313735,47.702114092313735 0 0,0 -0.3786455958107173,-0.7261028562602725 l 23.781343644540822 -12.142923513684734" fill="#c2ff1e" stroke="none" /><path d="M 80.9802524753101 108.90220220490708 l -27.057294237842655 12.664179906187773 a50.874380732819944,50.874380732819944 0 0,0 -0.3634260690857909,-0.7941515489153871 l 27.270704771783503 -12.197839375057697" fill="#9dff22" stroke="none" /><path d="M 80.28708602549918 107.23885506374661 l -22.46191159207604 8.248325066504815 a44.92848383773973,44.92848383773973 0 0,0 -0.2596434837491209,-0.7262690345579706 l 22.600195245869106 -7.861521075565924" fill="#e4ff1a" stroke="none" /><path d="M 80.05021161711548 106.5578916946017 l -22.935357831855953 7.539307673422987 a45.14273801932604,45.14273801932604 0 0,0 -0.23567794825436827,-0.7382578161806425 l 23.061400495887575 -7.1444808235509525" fill="#e1ff1b" stroke="none" /><path d="M 79.56144815229197 104.8234425847677 l -21.865150134816908 5.160115896099653 a43.465787021140926,43.465787021140926 0 0,0 -0.16514750943499049,-0.7276703983310399 l 21.950508505809562 -4.784011163829588" fill="#f6ff19" stroke="none" /><path d="M 79.48165901384964 104.47187691870673 l -47.24106382017545 10.295969983888542 a69.35002697797617,69.35002697797617 0 0,0 -0.2435252258927563,-1.1653563630209927 l 47.410846756892575 -9.48349716958214" fill="#3aff93" stroke="none" /><path d="M 79.34024301695615 103.76489593502545 l -24.882844928009003 4.534483237059237 a46.29263746505126,46.29263746505126 0 0,0 -0.1357590727167149,-0.7830222548603524 l 24.95701881821795 -4.106667949278292" fill="#d3ff1c" stroke="none" /><path d="M 79.22317932658666 103.0534771498775 l -19.13671521059816 2.8124381269771437 a40.34227694118802,40.34227694118802 0 0,0 -0.09481488484265886,-0.6860332747394442 l 19.182174611996032 -2.483516544037614" fill="#ffe015" stroke="none" /><path d="M 79.17382384314188 102.69636545807758 l -48.331534232206344 6.257484737384245 a69.734929121499,69.734929121499 0 0,0 -0.14351419768864643,-1.188503431994432 l 48.431830516154655 -5.426887628466414" fill="#3bff98" stroke="none" /><path d="M 79.0935383218832 101.97986365728391 l -48.74345932725793 4.616056276674911 a69.96154412125375,69.96154412125375 0 0,0 -0.1029646609171487,-1.1966054353073017 l 48.81551761087282 -3.778629793991947" fill="#3bff9a" stroke="none" /><path d="M 79.03789590574601 101.26102812881392 l -35.544169148686244 2.138248952026701 a56.60842693873548,56.60842693873548 0 0,0 -0.05002678225460305,-0.9705062109770141 l 35.57563752039742 -1.5277709476729562" fill="#5dff2a" stroke="none" /><path d="M 79.00696218219943 100.54070618675478 l -27.50708879319697 0.7084850329513976 a48.51621131112964,48.51621131112964 0 0,0 -0.014297423441547557,-0.8327532377425629 l 27.515197648237184 -0.23618487923978224" fill="#b8ff1f" stroke="none" /><line stroke="#e1ed5e" stroke-width="0.3" x1="15.003131293944662" x2="10.003315487706104" y1="100.72959589197737" y2="100.7725132973878" /><path d="M 14.003168132696942 100.73817937305945 a86.0,86.0 0 0,1 10.791469493833604,-42.45332614584628" fill="none" id="id22" stroke="none" /><text fill="#e1ed5e" style="font-size:6.75px; font-family:Arial;" text-anchor="middle"><textPath startOffset="22.145653131862435" xlink:href="#id22">October</textPath></text><path d="M 79.00696218219943 99.45929381324524 l -34.620783938369826 -0.8917085858771479 a55.63226565948889,55.63226565948889 0 0,0 0.032784128600502005,-0.9544741335817833 l 34.600375122772476 1.4858889840230698" fill="#68ff28" stroke="none" /><path d="M 79.06263194458094 98.37931529534042 l -41.927455240357496 -3.245450203363049 a63.05287683327611,63.05287683327611 0 0,0 0.09279695244771252,-1.0784412505203012 l 41.86556466521204 3.9647125012590307" fill="#32ff48" stroke="none" /><path d="M 79.13060592940154 97.66154086499901 l -22.591875738137926 -2.5314667986017345 a43.73326139206357,43.73326139206357 0 0,0 0.09000287230598006,-0.7453528943323674 l 22.545090779572277 2.9189133698575382" fill="#f3ff19" stroke="none" /><path d="M 79.34024301695615 96.23510406497455 l -28.292865149127483 -5.155902515097224 a49.75881689311816,49.75881689311816 0 0,0 0.16035064908621122,-0.8390223537538151 l 28.200188207759112 5.640827433884353" fill="#aaff21" stroke="none" /><path d="M 79.64726062577567 94.8264132398404 l -9.11898296417438 -2.31800980998763 a30.408986118604993,30.408986118604993 0 0,0 0.13294594303576268,-0.5048174001525271 l 9.077847540333892 2.4742077145129415" fill="#ff5808" stroke="none" /><path d="M 80.05021161711548 93.44210830539832 l -40.689922529437546 -13.375585739982784 a63.8319517339481,63.8319517339481 0 0,0 0.3511200473695315,-1.0380240301042576 l 40.45431706049565 14.072111444561203" fill="#33ff52" stroke="none" /><path d="M 80.5471966667186 92.08871423366112 l -18.054819669042004 -7.3427379804498685 a40.490826414782084,40.490826414782084 0 0,0 0.2673824360519025,-0.6416205093664963 l 17.926111388453624 7.651590999257628" fill="#ffe215" stroke="none" /><path d="M 80.83023694016515 91.42560881287825 l -24.766009894314404 -11.0775212147984 a48.13054961385021,48.13054961385021 0 0,0 0.3438252455782125,-0.7513202121658805 l 24.572200183881144 11.501030409178952" fill="#bdff1f" stroke="none" /><path d="M 81.1358732173502 90.77261029715801 l -19.37390962530965 -9.476750036730929 a42.56750253108471,42.56750253108471 0 0,0 0.32671589296759723,-0.6536506442353761 l 19.20837381913031 9.807932537130075" fill="#fffd17" stroke="none" /><line stroke="#e1ed5e" stroke-width="0.3" x1="26.387840678322718" x2="22.05771365940052" y1="57.49999999999999" y2="54.99999999999999" /><path d="M 25.521815274538284 56.99999999999999 a86.0,86.0 0 0,1 29.574782752854787,-30.34633250058573" fill="none" id="id23" stroke="none" /><text fill="#e1ed5e" style="font-size:6.75px; font-family:Arial;" text-anchor="middle"><textPath startOffset="21.40746469413373" xlink:href="#id23">November</textPath></text><path d="M 81.81346652052679 89.5 l -21.867902624460772 -12.625439466844956 a46.250878933689904,46.250878933689904 0 0,0 0.40288103269412573,-0.6841800717212464 l 21.647947881636867 12.998970706859774" fill="#d4ff1c" stroke="none" /><path d="M 82.37810715431573 88.57770195909679 l -19.57418842702378 -12.687752449761433 a44.32654956917244,44.32654956917244 0 0,0 0.4193620050649263,-0.6349675254384808 l 19.353501983038125 13.021899853538976" fill="#ebff1a" stroke="none" /><path d="M 85.60350026404147 84.71141617570332 l -16.284266142005038 -17.293326328993547 a44.753662018828024,44.753662018828024 0 0,0 0.5638326949933036,-0.5218751249524263 l 15.98500367569778 17.570319200078337" fill="#e6ff1a" stroke="none" /><path d="M 88.12776184653039 82.6780497279521 l -12.657888159723878 -18.468237110607785 a43.389683218788704,43.389683218788704 0 0,0 0.6180007290016892,-0.4158184709685711 l 12.3389911426252 18.682805255633465" fill="#f7ff19" stroke="none" /><path d="M 88.72937992617638 82.28071324371311 l -20.148350957496614 -31.676554257326753 a58.54144557584085,58.54144557584085 0 0,0 0.8525749528379872,-0.5320698267417833 l 19.601611875868926 32.01775988091007" fill="#49ff2c" stroke="none" /><line stroke="#e1ed5e" stroke-width="0.3" x1="56.869717070023135" x2="54.33264160355391" y1="26.7553504044142" y2="22.446841604673864" /><path d="M 56.362301976729285 25.89364864446614 a86.0,86.0 0 0,1 42.16139366436587,-11.88097634709845" fill="none" id="id24" stroke="none" /><text fill="#e1ed5e" style="font-size:6.75px; font-family:Arial;" text-anchor="middle"><textPath startOffset="22.145653131862474" xlink:href="#id24">December</textPath></text><path d="M 89.65649057296885 81.72400993836675 l -11.45133814072608 -20.233417248635078 a44.24917888379311,44.24917888379311 0 0,0 0.664276705354097,-0.3684630907564808 l 11.102317247215879 20.427013254824704" fill="#ecff1a" stroke="none" /><path d="M 90.93487009805054 81.0573650232925 l -11.513023516952234 -24.057791153436828 a47.67071475765654,47.67071475765654 0 0,0 0.7411917326755346,-0.34691515585670507 l 11.098343070405177 24.251882540864074" fill="#c2ff1e" stroke="none" /><path d="M 92.25597844496254 80.48000691201159 l -7.929743772217665 -19.988134398014214 a42.503635808999924,42.503635808999924 0 0,0 0.6805191097075739,-0.2632394108504055 l 7.585452400016562 20.12131369700266" fill="#fffc17" stroke="none" /><path d="M 93.95794788825049 79.88797359093562 l -14.11051112175399 -46.969302329294194 a70.0430615420549,70.0430615420549 0 0,0 1.154509735948572,-0.33606095812945935 l 13.302141373423794 47.20460698172617" fill="#3bff9b" stroke="none" /><path d="M 95.70440661134978 79.44403061299748 l -8.88673035245249 -42.526221769086234 a64.4448329989966,64.4448329989966 0 0,0 1.0848321406911705,-0.21699681063428017 l 8.155401726230343 42.67250797638338" fill="#34ff59" stroke="none" /><path d="M 98.9189461498227 79.02784411241856 l -1.4826209002467277 -28.762449379428517 a49.80063643460048,49.80063643460048 0 0,0 0.8541383975917769,-0.036680377923922404 l 0.9886567420541307 28.78366232577827" fill="#a9ff21" stroke="none" /><path d="M 99.63950707515114 79.00309439819443 l -0.40356999295678764 -23.505928859457523 a44.50939302247281,44.50939302247281 0 0,0 0.764062917805634,-0.006558561209720651 l 5.7581405829736885e-15 23.509393022472807" fill="#e9ff1a" stroke="none" /></svg>